<?xml version="1.0" standalone="no"?>
<!DOCTYPE svg PUBLIC "-//W3C//DTD SVG 1.1//EN" "http://www.w3.org/Graphics/SVG/1.1/DTD/svg11.dtd" >
<svg xmlns="http://www.w3.org/2000/svg">
  <metadata>Created by iconfont</metadata>
  <defs>
  <font id="iconfont" horiz-adv-x="1024">
    <font-face
      font-family="iconfont"
      font-weight="400"
      font-stretch="normal"
      units-per-em="1024"
      ascent="896"
      descent="-128"
    />
      <missing-glyph />
      
      <glyph glyph-name="icon_xip" unicode="&#59007;" d="M1024 320v-128h-128v-192h-192v-128H576v128H448v-128H320v128H128v192H0V320h128V448H0V576h128V768h192V896h128v-128h128V896h128v-128h192v-192h128v-128h-128v-128h128z m-256 320H256v-512h512V640z m-128-384H384V512h256v-256z"  horiz-adv-x="1024" />
      
      <glyph glyph-name="icon_xianlu" unicode="&#59008;" d="M512.731429 139.337143l-292.571429 461.385143 291.547429-175.542857 293.083428 175.981714-292.571428-461.604572z m403.821714 630.125714a355.254857 355.254857 0 0 0-28.891429-0.804571c-243.2 0-351.085714 101.741714-351.670857 103.131428L512 896l-24.210286-24.795429c-0.731429-0.804571-114.541714-110.226286-380.342857-102.4l-34.230857 1.462858v-461.458286c0-120.905143 44.470857-297.325714 427.154286-432.347429L512-128l11.702857 4.315429C907.190857 11.190857 950.857143 187.611429 950.857143 308.516571v462.262858z"  horiz-adv-x="1024" />
      
      <glyph glyph-name="yanjing_xianshi_o" unicode="&#60364;" d="M512 597.333333c-162.133333 0-285.866667-68.266667-375.466667-213.333333 89.6-145.066667 213.333333-213.333333 375.466667-213.333333s285.866667 68.266667 375.466667 213.333333c-89.6 145.066667-213.333333 213.333333-375.466667 213.333333z m0-469.333333c-183.466667 0-328.533333 85.333333-426.666667 256 98.133333 170.666667 243.2 256 426.666667 256s328.533333-85.333333 426.666667-256c-98.133333-170.666667-243.2-256-426.666667-256z m0 170.666667c46.933333 0 85.333333 38.4 85.333333 85.333333s-38.4 85.333333-85.333333 85.333333-85.333333-38.4-85.333333-85.333333 38.4-85.333333 85.333333-85.333333z m0-42.666667c-72.533333 0-128 55.466667-128 128s55.466667 128 128 128 128-55.466667 128-128-55.466667-128-128-128z"  horiz-adv-x="1024" />
      
      <glyph glyph-name="yanjing_yincang_o" unicode="&#60365;" d="M332.8 166.39999999999998l34.133333 34.133333c42.666667-12.8 93.866667-21.333333 145.066667-21.333333 162.133333 0 285.866667 68.266667 375.466667 213.333333-46.933333 72.533333-102.4 128-166.4 162.133334l29.866666 29.866666c72.533333-42.666667 132.266667-106.666667 183.466667-192-98.133333-170.666667-243.2-256-426.666667-256-59.733333-4.266667-119.466667 8.533333-174.933333 29.866667z m-115.2 64c-51.2 38.4-93.866667 93.866667-132.266667 157.866667 98.133333 170.666667 243.2 256 426.666667 256 38.4 0 76.8-4.266667 110.933333-12.8l-34.133333-34.133334c-25.6 4.266667-46.933333 4.266667-76.8 4.266667-162.133333 0-285.866667-68.266667-375.466667-213.333333 34.133333-51.2 72.533333-93.866667 115.2-128l-34.133333-29.866667z m230.4 46.933333l29.866667 29.866667c8.533333-4.266667 21.333333-4.266667 29.866666-4.266667 46.933333 0 85.333333 38.4 85.333334 85.333334 0 12.8 0 21.333333-4.266667 29.866666l29.866667 29.866667c12.8-17.066667 17.066667-38.4 17.066666-64 0-72.533333-55.466667-128-128-128-17.066667 4.266667-38.4 12.8-59.733333 21.333333zM384 396.8c4.266667 68.266667 55.466667 119.466667 123.733333 123.733333 0-4.266667-123.733333-123.733333-123.733333-123.733333zM733.866667 682.666667l29.866666-29.866667-512-512-34.133333 29.866667L733.866667 682.666667z"  horiz-adv-x="1024" />
      
      <glyph glyph-name="icon_wenhao" unicode="&#59006;" d="M512-128a512 512 0 1 0 512 512 512 512 0 0 0-512-512zM512 768a384 384 0 1 1 384-384 384 384 0 0 1-384 384z m102.4-389.76h-0.64a94.912 94.912 0 0 1-62.08-85.12L576 256H448l3.84 44.16a126.784 126.784 0 0 0 65.28 114.56 111.872 111.872 0 0 1 59.52 83.2 55.232 55.232 0 0 1-57.6 52.48 87.808 87.808 0 0 1-87.04-85.12L320 488.32Q349.76 644.8 536.96 640c103.04-4.48 158.72-47.36 166.4-128.64A150.016 150.016 0 0 0 614.4 378.24zM576 128H448v64h128v-64z"  horiz-adv-x="1024" />
      
      <glyph glyph-name="icon_sanjiao1" unicode="&#59005;" d="M326.997333 896L213.333333 775.68l369.706667-392.106667-369.322667-391.253333L327.466667-128 810.666667 384l-113.749334 120.32z"  horiz-adv-x="1024" />
      
      <glyph glyph-name="a-xingzhuang1" unicode="&#59004;" d="M1740.8 701.44L1536 896 870.4 262.144 204.8 894.976l-204.8-194.56L870.4-128l204.8 195.584z"  horiz-adv-x="1740" />
      
      <glyph glyph-name="a-icon_sanjiao1" unicode="&#59002;" d="M321.536 896L204.8 775.168 584.704 384 204.8-7.168 322.56-128 819.2 384 702.464 504.832v-1.024z"  horiz-adv-x="1024" />
      
      <glyph glyph-name="icon_dz" unicode="&#59003;" d="M511.964337 895.788138a448.017655 448.017655 0 0 1-323.336828-127.576276 432.339862 432.339862 0 0 1-134.850207-324.078345q0-227.857655 212.391724-419.981241a898.612966 898.612966 0 0 1 203.528828-141.876966l19.950345-9.886896h22.316138q83.367724 0 244.488827 139.087448 214.121931 184.849655 214.157242 432.657655a431.739586 431.739586 0 0 1-135.168 324.113655A448.441379 448.441379 0 0 1 511.964337 895.788138zM522.169026 456.280276m-172.137931 0a172.137931 172.137931 0 1 1 344.275862 0 172.137931 172.137931 0 1 1-344.275862 0Z"  horiz-adv-x="1024" />
      
      <glyph glyph-name="icon_zhanghao" unicode="&#59001;" d="M511.95128 896a511.926868 511.926868 0 1 1 511.926867-511.926868 512.560682 512.560682 0 0 1-511.926867 511.926868z m-0.804457-283.680617a152.554207 152.554207 0 0 0 131.370186-74.643813 147.483693 147.483693 0 0 0 0-149.141361 152.602961 152.602961 0 0 0-131.370186-74.66819 149.238871 149.238871 0 1 0 0 298.453364z m0-379.922868a320.734371 320.734371 0 0 0 279.828977-165.766795 421.023282 421.023282 0 0 0-559.414179 1.048231 316.614579 316.614579 0 0 0 279.682712 164.718564z m265.129363-17.503024a398.815407 398.815407 0 0 1-115.792982 70.499643 230.050183 230.050183 0 0 1-149.433891 408.444508 235.632624 235.632624 0 0 1-202.869304-115.305432 228.855687 228.855687 0 0 1 53.435414-293.139076 399.205447 399.205447 0 0 1-113.30648-68.40318 391.063372 391.063372 0 0 1-74.838832-86.320621A418.414893 418.414893 0 0 0 88.953422 383.926868a422.997857 422.997857 0 1 0 845.898205 0 418.317383 418.317383 0 0 0-85.321144-254.403276 392.014093 392.014093 0 0 1-73.156787 85.369899z"  horiz-adv-x="1024" />
      
      <glyph glyph-name="icon_search" unicode="&#59000;" d="M1011.462583-45.056l-190.683429 186.806857a450.267429 450.267429 0 0 1-23.552 621.714286 473.526857 473.526857 0 0 1-659.529143 0 450.194286 450.194286 0 0 1 0-646.509714 474.550857 474.550857 0 0 1 611.328-39.497143l192.658286-189.074286a45.860571 45.860571 0 0 1 67.657143-1.974857 48.128 48.128 0 0 1 2.048 68.096zM99.298011 440.612571a368.347429 368.347429 0 1 0 368.420572-358.4 364.836571 364.836571 0 0 0-368.420572 358.4z m0 0"  horiz-adv-x="1024" />
      
      <glyph glyph-name="jiantou-l" unicode="&#58998;" d="M628.460308 139.815385a36.588308 36.588308 0 0 0-50.76677 0l-236.307692 219.372307a36.194462 36.194462 0 0 0-11.421538 26.387693 35.446154 35.446154 0 0 0 11.421538 25.993846l235.52 220.947692a36.036923 36.036923 0 0 0 49.073231-52.775385L419.485538 384l207.793231-194.56a35.997538 35.997538 0 0 0 1.260308-49.624615zM512 896a512 512 0 1 1 512-512A512 512 0 0 1 512 896z m0 0"  horiz-adv-x="1024" />
      
      <glyph glyph-name="jiantou-r" unicode="&#58999;" d="M395.500308 139.815385a36.627692 36.627692 0 0 1 50.806154 0l236.307692 219.372307a36.194462 36.194462 0 0 1 11.421538 26.387693 35.446154 35.446154 0 0 1-11.421538 25.993846l-235.52 220.947692a36.036923 36.036923 0 0 1-49.073231-52.775385L604.514462 384l-207.753847-194.56a35.997538 35.997538 0 0 1-1.299692-49.624615zM512 896A512 512 0 1 0 0 384 512 512 0 0 0 512 896z m0 0"  horiz-adv-x="1024" />
      
      <glyph glyph-name="icon_shuaxin" unicode="&#58997;" d="M33.352071 351.070316L184.314076 479.066201l-60.121496 21.942152 18.211986-5.119835a382.305426 382.305426 0 0 0 735.135227 0l116.147124 35.107443a502.84098 502.84098 0 0 1-965.454682 5.85124l-28.305376 10.971076zM1023.967087 213.566164l-31.81612 200.404987-152.497956-131.652911 37.374799-13.165291a382.159145 382.159145 0 0 0-734.111261 2.92562l-116.147124-35.107443a502.475278 502.475278 0 0 1 963.333607-10.971076z m0 0"  horiz-adv-x="1024" />
      
      <glyph glyph-name="icon_gou" unicode="&#58996;" d="M512 384m-512 0a512 512 0 1 1 1024 0 512 512 0 1 1-1024 0ZM818.631111 524.856889l-362.382222-362.040889-18.773333 19.114667-15.928889-15.644445-241.208889 241.379556L261.12 488.106667l179.768889-180.053334 296.96 297.244445z"  horiz-adv-x="1024" />
      
      <glyph glyph-name="icon_jiantou" unicode="&#58995;" d="M756.010667 267.52a35.754667 35.754667 0 0 1 0 50.773333L536.704 554.666667a35.626667 35.626667 0 0 1-52.48 0l-220.586667-235.52a35.925333 35.925333 0 0 1 52.48-49.066667L512 476.586667l194.517333-207.786667a35.84 35.84 0 0 1 49.493334-1.28zM0 384a512 512 0 1 0 512-512A512 512 0 0 0 0 384z m0 0"  horiz-adv-x="1024" />
      
      <glyph glyph-name="icon_all" unicode="&#58993;" d="M341.333333 896h853.333334v-170.666667H341.333333V896z m0-426.666667h853.333334v-170.666666H341.333333V469.333333z m0-426.666666h853.333334v-170.666667H341.333333v170.666667zM0 896h170.666667v-170.666667H0V896z m0-426.666667h170.666667v-170.666666H0V469.333333z m0-426.666666h170.666667v-170.666667H0v170.666667z"  horiz-adv-x="1194" />
      
      <glyph glyph-name="icon_sanjiao" unicode="&#58994;" d="M256.00000001-127.38559999999995l511.99999999 512-512 512 1e-8-1024z"  horiz-adv-x="1024" />
      
      <glyph glyph-name="waf_jiantou" unicode="&#58991;" d="M0 896l731.428571-553.691429L1462.857143 896v-469.577143L731.428571-128 0 426.422857V896z"  horiz-adv-x="1462" />
      
      <glyph glyph-name="icon_jy" unicode="&#58992;" d="M651.490864 492.089338L591.359375 552.220826 935.53677 896 995.838925 836.152955zM254.91886 396.572999h340.138289v-85.048794H254.91886V396.572999z m510.235877-311.864542H254.91886v85.333239h510.235877v-85.333239zM113.208795 779.321019v-793.826674a28.444413 28.444413 0 0 1 28.444413-28.444413H878.647945a28.444413 28.444413 0 0 1 28.444412 28.444413v510.292766h85.333239v-510.292766A113.37943 113.37943 0 0 0 878.534167-127.998862H141.53943A113.37943 113.37943 0 0 0 28.160001-14.562544V779.150352A113.37943 113.37943 0 0 0 141.53943 892.529782h453.517719v-85.333239H141.53943a28.444413 28.444413 0 0 1-28.330635-28.046191z"  horiz-adv-x="1024" />
      
      <glyph glyph-name="icon_smile" unicode="&#58989;" d="M512-128a512 512 0 1 0 512 512 513.4848 513.4848 0 0 0-512-512z m0 73.1648A438.8352 438.8352 0 1 1 73.1648 384 440.32 440.32 0 0 1 512-54.8352z m-190.1568 266.9568a19.5072 19.5072 0 0 0 7.2704-10.9568 260.4032 260.4032 0 0 1 182.8864-76.8 245.76 245.76 0 0 1 182.8352 76.8 19.0464 19.0464 0 0 1 7.3216 10.9568 36.3008 36.3008 0 1 1-54.8352 47.5136l-7.3216-7.2704a182.6816 182.6816 0 0 0-128-51.2A171.5712 171.5712 0 0 0 384 256l-7.3216 7.3216a39.1168 39.1168 0 0 1-51.2 3.6352 39.8848 39.8848 0 0 1-3.6352-54.8352zM665.6 588.8a51.2 51.2 0 0 0 51.2-51.2v-51.2a51.2 51.2 0 0 0-102.4 0V537.6a51.2 51.2 0 0 0 51.2 51.2zM358.4 588.8a51.2 51.2 0 0 0 51.2-51.2v-51.2a51.2 51.2 0 0 0-102.4 0V537.6a51.2 51.2 0 0 0 51.2 51.2z"  horiz-adv-x="1024" />
      
      <glyph glyph-name="icon_yun_normal" unicode="&#58983;" d="M768.945092 896a380.205176 380.205176 0 0 1-324.065883-195.041882 211.727059 211.727059 0 0 1-46.983529 5.360941 230.580706 230.580706 0 0 1-218.051765-176.248471A350.569412 350.569412 0 0 1 0.342739 217.750588 331.294118 331.294118 0 0 1 313.566268-128h783.058824a309.248 309.248 0 0 1 290.334117 321.897412 317.078588 317.078588 0 0 1-233.110588 315.271529c-19.275294 216.847059-184.32 386.770824-384.903529 386.770824zM502.102739 540.611765l26.503529 61.680941a271.058824 271.058824 0 0 0 209.016471 170.947765V474.352941H290.074504l0.602352 4.276706a115.892706 115.892706 0 0 0 107.218824 107.218824 91.617882 91.617882 0 0 0 46.381176-12.589177l57.825883-32.88847zM856.888621 474.352941V756.916706A308.224 308.224 0 0 0 1035.185092 474.352941h-178.296471z m-239.134117-240.941176V353.882353h580.668235a206.968471 206.968471 0 0 0 65.65647-120.470588H617.754504z m-496.338824 0a245.458824 245.458824 0 0 0 38.550588 120.470588h338.522353v-120.470588H121.41568z m854.738824-240.941177v120.470588h276.48a174.682353 174.682353 0 0 0-156.611765-120.470588H976.154504z m-662.588236 0a192.210824 192.210824 0 0 0-170.465882 120.470588h713.788235v-120.470588H313.566268z"  horiz-adv-x="1387" />
      
      <glyph glyph-name="icon_dengbao_normal" unicode="&#58984;" d="M910.222222 896H113.777778a113.777778 113.777778 0 0 1-113.777778-113.777778v-796.444444a113.777778 113.777778 0 0 1 113.777778-113.777778h796.444444a113.777778 113.777778 0 0 1 113.777778 113.777778V782.222222a113.777778 113.777778 0 0 1-113.777778 113.777778z m-284.444444-113.777778v-327.907555l-62.919111 31.459555L512 511.203556l-50.858667-25.429334L398.222222 454.314667V782.222222h227.555556z m284.444444-796.444444H113.777778V782.222222h170.666666v-512l227.555556 113.777778 227.555556-113.777778V782.222222h170.666666v-796.444444z"  horiz-adv-x="1024" />
      
      <glyph glyph-name="icon_shenji_normal" unicode="&#58985;" d="M0-128v113.777588h1023.998293v-113.777588H0z m6.257767 349.126529a115.256697 115.256697 0 0 0 114.915364 114.972253H318.577247a22.755518 22.755518 0 0 1 23.893293 17.066638 153.599744 153.599744 0 0 1-38.68438 97.450505 330.467005 330.467005 0 0 0-66.559889 187.334798 275.341763 275.341763 0 0 0 549.545751 0 329.955006 329.955006 0 0 0-66.559889-187.27791 158.150848 158.150848 0 0 1-39.253268-97.16606 24.177737 24.177737 0 0 1 24.462182-17.066638h196.835227a115.711807 115.711807 0 0 0 115.484252-115.768696v-174.933042H6.257767v175.729485z m897.705171-61.724341l-1.706664 62.577673H705.421047a136.533106 136.533106 0 0 0-137.670882 121.343798 258.161348 258.161348 0 0 0 56.888794 168.90283 225.279625 225.279625 0 0 1 48.355475 125.496679 162.019286 162.019286 0 0 1-321.990575 0 225.108958 225.108958 0 0 1 48.355475-125.496679 257.08046 257.08046 0 0 0 56.888794-167.651277 136.533106 136.533106 0 0 0-137.670881-122.595351H121.173131l-0.568888-62.577673h783.358695z"  horiz-adv-x="1024" />
      
      <glyph glyph-name="icon_shenji_selected" unicode="&#58986;" d="M0-128v113.777778h1024v-113.777778H0z m6.257778 349.127111a115.256889 115.256889 0 0 0 114.915555 115.029333H318.577778a23.153778 23.153778 0 0 1 23.893333 17.066667 153.6 153.6 0 0 1-38.684444 97.507556 329.955556 329.955556 0 0 0-66.56 187.278222 275.342222 275.342222 0 0 0 549.546666 0 329.955556 329.955556 0 0 0-66.56-187.278222 158.151111 158.151111 0 0 1-39.253333-97.166223 24.007111 24.007111 0 0 1 24.462222-17.066666h196.835556a115.768889 115.768889 0 0 0 115.484444-115.825778v-174.933333H6.257778V221.297778z"  horiz-adv-x="1024" />
      
      <glyph glyph-name="icon_dengbao_selected" unicode="&#58987;" d="M910.222222-128H113.777778a113.777778 113.777778 0 0 0-113.777778 113.777778V782.222222a113.777778 113.777778 0 0 0 113.777778 113.777778h170.666666v-625.777778l227.555556 113.777778 227.555556-113.777778V896h170.666666a113.777778 113.777778 0 0 0 113.777778-113.777778v-796.444444a113.777778 113.777778 0 0 0-113.777778-113.777778zM512 511.203556l-50.858667-25.429334L398.222222 454.314667V896h227.555556v-441.685333l-62.919111 31.459555z"  horiz-adv-x="1024" />
      
      <glyph glyph-name="icon_yun_nselected" unicode="&#58988;" d="M632.832 214.493867v136.533333h749.636267a314.026667 314.026667 0 0 0 52.360533-136.533333H632.832zM904.533333 883.029333a413.0816 413.0816 0 0 0 271.36-394.786133H904.533333V883.029333zM193.9456 503.330133A200.226133 200.226133 0 0 0 382.976 683.349333a173.4656 173.4656 0 0 0 86.016-23.1424A375.944533 375.944533 0 0 0 768.682667 895.931733v-407.688533H162.816a266.786133 266.786133 0 0 0 31.1296 15.086933zM496.981333 214.493867H0.546133a353.348267 353.348267 0 0 0 34.133334 136.533333H496.981333v-136.533333z m135.850667-136.533334h271.701333V-128H286.993067a290.6112 290.6112 0 0 0-267.0592 205.346133H632.832zM1176.302933-128h-135.850666v205.346133h384.273066A268.629333 268.629333 0 0 0 1176.302933-128z"  horiz-adv-x="1435" />
      
      <glyph glyph-name="qq" unicode="&#58980;" d="M142.461289 490.578844a323.734858 323.734858 0 0 1 0-76.718227c0-15.329046-62.04614-76.718227-87.59455-143.217089s-25.54841-138.107407 10.219364-163.655818c36.497729-30.731088 72.265504 92.047273 77.375186 71.608545a221.32223 221.32223 0 0 0 5.109682-25.548411 444.031374 444.031374 0 0 1 62.04614-102.193642 623.016238 623.016238 0 0 1-62.04614-61.38918c-25.54841-40.877457 10.949319-117.595684 134.311644-117.595684 160.590009 0 202.19742 56.206503 202.19742 56.206503h51.096821a343.9546 343.9546 0 0 1 196.357783-56.206503c186.138419 20.438728 160.590009 81.827909 144.531008 122.705366a129.055971 129.055971 0 0 1-67.155822 61.38918 262.199687 262.199687 0 0 1 67.155822 122.778361c5.839637 20.438728 51.826776-102.193642 83.214822-71.608544 15.329046 10.219364 40.877457 61.389181 15.329046 163.655818a364.977292 364.977292 0 0 1-82.484868 143.217089v76.718227a70.87859 70.87859 0 0 1-31.388047 35.84077 346.655432 346.655432 0 1 1-691.996946 0c0-15.329046-15.329046-5.109682-26.278365-35.84077h0Z"  horiz-adv-x="1024" />
      
      <glyph glyph-name="wechat" unicode="&#58981;" d="M841.142857 585.801143c14.628571 0 28.525714-1.389714 42.422857-2.633143-38.034286 178.688-227.474286 312.173714-443.245714 312.173714-241.371429-0.877714-439.588571-167.131429-439.588571-378.294857a365.714286 365.714286 0 0 1 175.542857-299.885714l-43.885715-133.266286 153.6 77.604572a747.885714 747.885714 0 0 1 153.6-21.942858 405.211429 405.211429 0 0 1 40.96 1.901715 335.213714 335.213714 0 0 0-13.165714 93.257143 362.130286 362.130286 0 0 0 373.76 351.085714v0Zm-236.251428 120.246857a55.661714 55.661714 0 0 0 0-111.323429 56.466286 56.466286 0 1 0 0 111.323429h0Zm-307.2-111.323429a56.466286 56.466286 0 1 0 0 111.323429A55.661714 55.661714 0 0 0 297.691429 594.724571Zm945.005714-355.254857c0 177.371429-175.542857 322.340571-373.76 322.340572-208.457143 0-373.76-144.969143-373.76-322.340572s165.302857-322.486857 373.76-322.486857a559.104 559.104 0 0 1 132.388571 21.942857l119.954286-66.633143-32.914286 110.738286a340.260571 340.260571 0 0 1 154.331429 256h0Zm-494.445714 55.661715a47.981714 47.981714 0 0 0-44.617143 44.690285 48.64 48.64 0 0 0 44.617143 44.690286 45.641143 45.641143 0 1 0 0-89.380571h0Zm241.371428 0a47.323429 47.323429 0 0 0-43.885714 44.690285 47.981714 47.981714 0 0 0 43.885714 44.690286A45.641143 45.641143 0 1 0 989.622857 295.131429Z"  horiz-adv-x="1243" />
      
      <glyph glyph-name="phone" unicode="&#58982;" d="M698.806909 256.029928l-6.139027-5.115856a99.503402 99.503402 0 0 0-134.035431 5.883234l-33.253065 27.165196a816.030216 816.030216 0 0 0-113.572007 113.572007l-27.114038 33.457699a98.991817 98.991817 0 0 0-5.627441 133.881956l5.115856 6.139027a99.401085 99.401085 0 0 1 6.650613 118.329753l-106.921394 162.070323a98.8895 98.8895 0 0 1-137.104945 28.239526 127.896404 127.896404 0 0 1-15.859154-12.687323l-101.805538-101.959013a98.582548 98.582548 0 0 1-28.648794-79.807356c24.044524-225.916208 305.928198-506.469759 305.928198-506.46976s280.860503-282.241784 506.46976-306.235149a98.53139 98.53139 0 0 1 79.807356 28.648794l101.805537 101.959013a98.991817 98.991817 0 0 1 0 140.327935 89.578641 89.578641 0 0 1-15.347568 12.687323l-162.17264 106.819077A99.042975 99.042975 0 0 1 698.806909 256.029928Z"  horiz-adv-x="1024" />
      
      <glyph glyph-name="icon_fwxy" unicode="&#58905;" d="M849.211855 502.586169V783.596048H174.788145v-786.827662h168.605927v-112.403951H62.384193V896h899.231614v-393.413831h-112.403952z m-217.670252-582.25247L455.798024-128l48.221295 175.912184zM287.192097 221.57629v112.403951h224.807903v-112.403951H287.192097z m0 393.413831h449.615806v-112.403952H287.192097V614.990121z m437.757189-336.649836l136.345994-136.570801-208.284523-208.50933-136.345993 136.008781z m85.089792 84.864984a46.535236 46.535236 0 0 0 66.655543 2.810099l72.444347-72.500549a46.872448 46.872448 0 0 0-2.753897-66.318332l-68.060592-68.56641-136.345994 136.570801z"  horiz-adv-x="1024" />
      
      <glyph glyph-name="whitelist" unicode="&#58976;" d="M798.16704 342.979765l-191.066353 182.151529 95.232 90.774588 95.834353-91.25647 191.548235 182.452706 95.292236-90.774589zM0.109628 157.756235A161.310118 161.310118 0 0 0 180.815511 323.764706h421.647058v-421.647059H0.109628v255.638588zM120.580216 22.588235h361.411765v180.705883H180.815511a58.307765 58.307765 0 0 1-60.235295-60.235294v-120.470589zM328.934099 414.117647A225.882353 225.882353 0 1 0 558.490805 640 228.050824 228.050824 0 0 0 328.934099 414.117647z m0 322.680471A96.798118 96.798118 0 1 1 427.298334 640a97.641412 97.641412 0 0 1-98.364235 96.798118zM963.874334 143.058824h-301.17647v120.470588h301.17647v-120.470588z m0-240.941177h-301.17647v120.470588h301.17647v-120.470588z"  horiz-adv-x="1084" />
      
      <glyph glyph-name="icon_caozuo" unicode="&#58977;" d="M967.111111 497.777778v-625.777778H56.888889V896h682.666667l227.555555-227.555556v-170.666666z m-281.201778 290.702222L682.666667 782.222222H170.666667v-796.444444h682.666666V497.777778l9.784889 113.777778z m-59.619555-518.826667a162.247111 162.247111 0 0 0-126.122667-46.648889L227.555556 99.555556l123.448888 272.497777a160.711111 160.711111 0 0 0 46.648889 126.293334 162.417778 162.417778 0 0 0 126.179556 46.648889L796.444444 668.444444l-123.448888-272.497777a160.597333 160.597333 0 0 0-46.705778-126.293334zM561.891556 434.062222a70.599111 70.599111 0 1 1 20.821333-50.062222 69.859556 69.859556 0 0 1-20.821333 50.062222z"  horiz-adv-x="1024" />
      
      <glyph glyph-name="icon_yuming" unicode="&#58978;" d="M0 64V896h1024v-832H0zM896 768H128v-576h768V768zM372.096 394.368L405.312 640h213.376l27.52-250.368L725.312 640H832l-106.688-384H618.688L508.992 573.568 418.048 265.28 298.688 256 192 640h106.688zM832-128H192v128h640v-128z"  horiz-adv-x="1024" />
      
      <glyph glyph-name="icon_jis1" unicode="&#58979;" d="M0 52.705882V896h1084.235294v-843.294118H0zM963.764706 775.529412H120.470588v-602.352941h843.294118V775.529412zM423.333647 715.294118l80.775529-80.112942-161.551058-161.430588 161.551058-160.828235-80.775529-80.112941-242.266353 240.941176V474.352941z m238.290824 0l242.266353-240.941177v-0.602353l-242.266353-240.941176-80.77553 80.112941 161.551059 160.828235-161.551059 161.430588zM843.294118-128H240.941176v120.470588h602.352942v-120.470588z"  horiz-adv-x="1084" />
      
      <glyph glyph-name="icon_zhuce" unicode="&#58900;" d="M90.125-37.875V805.875h1012.5v-843.75H90.125zM990.12500027 693.37500027H202.62499973v-618.75000054h787.50000054V693.37500027zM385.38124973 376.01249972999994a160.81875 160.81875 0 0 1 197.4375 0.3375A227.70000027 227.70000027 0 0 0 708.87499973 187.12500027c-0.675-0.61874973-449.38125 0-449.99999973 0a230.62499973 230.62499973 0 0 0 126.50624973 188.88749946zM877.62499973 187.12500027h-112.49999973V299.625h112.49999973v-112.49999973z m-224.99999946 337.5h224.99999946v-112.50000054h-224.99999946V524.62500027zM483.87500027 395.24999973a121.10624973 121.10624973 0 1 0 122.85 121.05000027A122.11874973 122.11874973 0 0 0 483.87500027 394.96875z"  horiz-adv-x="1228" />
      
      <glyph glyph-name="icon_wangluoanquan" unicode="&#58901;" d="M524.1059552-157.40017813000009L511.96965973-162.1333333299999l-12.13629653 4.7331552C102.9764736-5.69647359999999 56.85854827 193.15674027 56.85854827 329.32598507V788.7454816l35.43798506-1.21362987c10.0124448 0 19.8428448-0.48545173 29.4305184-0.48545173 254.86222187 0 364.08888853 114.5666368 364.99911147 115.71958507L511.96965973 930.13333333l25.30417707-27.36734826c0.91022187-0.97090347 112.20005973-115.71958507 364.93842987-115.71958507 9.5876736 0 19.4180736 0 29.3698368 0.48545173l35.43798506 1.21362987V329.38666666999995c0.0606816-136.2299264-45.8752-334.84041493-442.91413333-486.7868448zM845.71780693 687.40740693a699.7788448 699.7788448 0 0 0-333.01997013 86.41042987 673.5644448 673.5644448 0 0 0-337.1463104-102.30897707V329.38666666999995c0-68.8734816 0-227.6162368 336.41813333-365.4845632 336.35745173 137.8683264 336.35745173 296.6110816 336.35745174 365.4845632z m-290.84634026-444.67389546l-85.80361494-85.86429654-85.80361493 85.86429654-128.76610347 128.70542186 85.86429654 85.80361494 128.70542186-128.70542187 214.5090368 214.5090368 85.86429654-85.80361493-214.5697184-214.5090368z"  horiz-adv-x="1024" />
      
      <glyph glyph-name="icon_yunjisuan" unicode="&#58902;" d="M917.785978 167.202952h-85.667897v-177.121771h118.081181v-118.081181h-236.162362v295.202952h-118.08118v-236.162362h-118.081181v236.162362h-118.081181v-295.202952h-236.162362v118.081181h118.081181v177.121771H133.726937a272.531365 272.531365 0 0 0-132.841328 236.162362A267.512915 267.512915 0 0 0 218.568266 672.826568a371.365314 371.365314 0 0 0 686.464944-15.586716 235.335793 235.335793 0 0 0 156.811808-234.214022 259.778598 259.778598 0 0 0-144.05904-255.822878z m-107.98524 368a30.346863 30.346863 0 0 1-7.97048-0.708487 264.619926 264.619926 0 0 1-59.926199 132.250922 238.228782 238.228782 0 0 1-378.863469-14.169741 267.571956 267.571956 0 0 1-50.597786-132.250923 106.273063 106.273063 0 0 1-55.261992 14.878229 113.535055 113.535055 0 0 1-79.232473-31.822878 132.605166 132.605166 0 0 1-43.926199-99.719557 129.416974 129.416974 0 0 1 75.040591-118.081181h623.05535v-1.239853a110.583026 110.583026 0 0 1 92.575646 124.98893 119.97048 119.97048 0 0 1-114.892989 125.874539z"  horiz-adv-x="1062" />
      
      <glyph glyph-name="icon_beian" unicode="&#58903;" d="M30.117647-128V896h963.764706v-1024H30.117647zM873.411765 775.529412H150.588235v-783.058824h722.82353V775.529412zM512 775.529412l60.235294-180.705883 180.705882-3.011764L632.470588 474.352941l28.611765-180.705882L512 353.882353l-149.082353-60.235294L391.529412 474.352941 271.058824 593.016471 451.764706 594.823529z m240.941176-722.82353H271.058824v120.470589h481.882352v-120.470589z"  horiz-adv-x="1024" />
      
      <glyph glyph-name="icon_falvfaguui" unicode="&#58906;" d="M227.555556 611.555556h170.666666v-113.777778H227.555556V611.555556z m0-227.555556h170.666666v-113.777778H227.555556V384z m427.918222-398.222222l-147.569778-113.777778-147.512889 113.777778H0V896h455.111111v-113.777778H113.777778v-682.666666h250.311111l145.806222-113.777778 147.512889 113.777778H910.222222V782.222222h-227.555555v-455.111111h-113.777778V896h455.111111v-910.222222h-368.526222z"  horiz-adv-x="1024" />
      
      <glyph glyph-name="icon_guize_" unicode="&#58907;" d="M967.111111 611.555556v-739.555556H56.888889V896h682.666667l227.555555-227.555556v-56.888888M568.888889 497.777778V782.222222H170.666667v-796.444444h682.666666V497.777778H568.888889z m117.020444 290.929778L682.666667 782.222222v-170.666666h180.451555zM341.333333 327.111111h341.333334v-113.777778H341.333333v113.777778z"  horiz-adv-x="1024" />
      
      <glyph glyph-name="icon_fuwuqi" unicode="&#58908;" d="M30.117647-128V353.882353h963.764706v-481.882353H30.117647z m843.294118 361.411765H150.588235v-240.941177h722.82353v240.941177z m-60.235294-180.705883H572.235294v120.470589h240.941177v-120.470589zM30.117647 896h963.764706v-481.882353H30.117647V896z m120.470588-361.411765h722.82353V775.529412H150.588235v-240.941177z m421.647059 180.705883h240.941177v-120.470589H572.235294V715.294118z"  horiz-adv-x="1024" />
      
      <glyph glyph-name="DDOS" unicode="&#58972;" d="M146.286 749.714v-219.428H0V896h365.714v-146.286H146.286zM877.714-128H658.286V18.286h219.428V237.714H1024V-128H877.714z m0 877.714H658.286V896H1024v-365.714H877.714V749.714zM455.022 92.38H291.767V676.06h157.11c174.812 0 283.21-92.306 283.21-289.499S623.689 92.38 455.022 92.38z m-13.166 490.57h-35.62v-396.435h35.62c106.789 0 173.349 58.515 173.349 200.339S548.57 582.949 441.856 582.949zM365.714-128H0V237.714h146.286v-219.428h219.428V-128z"  horiz-adv-x="1024" />
      
      <glyph glyph-name="icon_sh" unicode="&#58975;" d="M511.487744 895.999488A511.999744 511.999744 0 1 1 1023.999488 381.951745 511.999744 511.999744 0 0 1 511.487744 895.999488z m3.071999-951.807524h-3.071999a433.356583 433.356583 0 0 0-440.831779 427.007786 75.622362 75.622362 0 0 0-0.512 10.751995 441.343779 441.343779 0 1 0 444.415778-437.759781z m46.079977 500.22375h162.303919v31.231984h-162.303919v35.839982h162.303919v30.719985h-162.303919V578.559647h177.663911v30.719984h-183.295909l19.455991 11.775994c-11.775994 17.407991-25.087987 35.327982-39.93598 54.271973l-31.743984-18.94399c11.775994-15.871992 22.015989-31.743984 31.231984-47.103977H382.463809c9.727995 15.871992 18.943991 32.255984 28.159986 49.663976l-35.839982 12.799993a513.996543 513.996543 0 0 0-116.735942-159.23192 309.555045 309.555045 0 0 0 23.039988-31.743984c14.335993 14.335993 28.671986 29.695985 41.983979 45.567977v-169.471915h37.375982v19.45599h387.583806v31.231984h-187.391906v36.863982z m-36.863982-36.863982H360.44782v36.863982h163.327918v-36.863982z m0 68.095966H360.44782v35.839982h163.327918v-35.839982z m0 66.559967H360.44782v33.279983l2.047999 3.071999h161.279919v-36.351982z m-199.6799-365.567817h37.375981v25.599987h303.615848v-25.599987h37.375982v160.767919H324.095838v-160.767919z m37.375981 129.023935h303.615848v-71.679964H361.471819v71.679964z"  horiz-adv-x="1024" />
      
      <glyph glyph-name="icon_phone" unicode="&#58973;" d="M855.341176 84.630588a787.395765 787.395765 0 0 0-521.637647-212.510117A370.085647 370.085647 0 0 0 180.705882-97.28c-104.207059 47.344941-162.635294 100.713412-177.091764 162.635294a146.793412 146.793412 0 0 0 40.357647 134.144 469.835294 469.835294 0 0 0 267.444706 126.494118h6.625882a173.598118 173.598118 0 0 0 125.289412-58.066824 94.569412 94.569412 0 0 1 21.082353-17.287529 73.607529 73.607529 0 0 1 30.72-7.348706c26.503529 0 39.755294-18.070588 127.09647 63.006118 124.084706 120.832 67.463529 128.722824 57.825883 149.323294a86.678588 86.678588 0 0 1-18.070589 19.817411 158.960941 158.960941 0 0 0-61.44 118.603295C596.329412 686.561882 692.103529 821.850353 733.665882 854.136471a181.669647 181.669647 0 0 0 110.230589 41.743058c77.703529 0 146.371765-57.765647 203.595294-171.670588 106.014118-211.425882-36.743529-492.664471-192.150589-639.819294z m97.581177 597.353412c-36.743529 73.366588-76.498824 115.410824-109.025882 115.410824a78.305882 78.305882 0 0 1-43.971765-19.395765 350.689882 350.689882 0 0 1-95.171765-179.501177 65.656471 65.656471 0 0 1 30.117647-52.103529 159.744 159.744 0 0 0 40.357647-50.838588c28.912941-61.44 74.089412-109.447529-80.112941-259.674353-92.762353-85.955765-131.312941-91.075765-199.981176-91.075765a182.934588 182.934588 0 0 0-72.884706 15.661177 171.309176 171.309176 0 0 0-53.609412 38.912 72.643765 72.643765 0 0 1-57.223529 28.190117 389.481412 389.481412 0 0 1-186.729412-90.352941 57.344 57.344 0 0 1-19.275294-50.176c3.011765-13.733647 21.082353-50.477176 120.470588-95.352471a259.011765 259.011765 0 0 1 107.821176-21.022117 682.887529 682.887529 0 0 1 448.150589 183.597176c135.529412 128.903529 251.181176 368.459294 171.068235 527.540706z m0 0"  horiz-adv-x="1084" />
      
      <glyph glyph-name="icon_jsq" unicode="&#58974;" d="M827.076923-128h-630.153846c-78.769231 0-147.035897 63.015385-147.035898 147.035897v735.179488C49.887179 832.984615 112.902564 896 196.923077 896h630.153846c78.769231 0 147.035897-63.015385 147.035898-147.035897v-735.179488c-5.251282-78.769231-68.266667-141.784615-147.035898-141.784615z m-630.153846 945.230769c-36.758974 0-68.266667-31.507692-68.266667-68.266666v-735.179488c0-36.758974 31.507692-68.266667 68.266667-68.266666h630.153846c36.758974 0 68.266667 31.507692 68.266667 68.266666v735.179488c0 36.758974-31.507692 68.266667-68.266667 68.266666h-630.153846zM459.487179 223.835897h262.564103v-105.025641h-262.564103zM328.205128 643.938462h367.589744c15.753846 0 26.25641-10.502564 26.25641-26.256411v-52.51282c0-15.753846-10.502564-26.25641-26.25641-26.25641h-367.589744c-15.753846 0-26.25641 15.753846-26.25641 26.25641v52.51282c0 15.753846 10.502564 26.25641 26.25641 26.256411zM301.948718 433.887179h105.025641v-105.025641h-105.025641zM301.948718 223.835897h105.025641v-105.025641h-105.025641zM459.487179 433.887179h105.025642v-105.025641h-105.025642zM617.025641 433.887179h105.025641v-105.025641h-105.025641z"  horiz-adv-x="1024" />
      
      <glyph glyph-name="icon_wenj" unicode="&#58970;" d="M987.136 586.069333L649.557333 896H34.133333v-1024h955.733334z m-749.909333-49.152h412.330666V411.306667h-412.330666V536.917333z m548.590933-378.197333H237.226667V284.330667h548.590933v-125.610667z"  horiz-adv-x="1024" />
      
      <glyph glyph-name="icon_xiazai" unicode="&#58971;" d="M1023.976595 241.382003v-307.924391a62.974561 62.974561 0 0 0-63.998537-61.438595H64.14482a62.462572 62.462572 0 0 0-63.998538 61.438595V241.382003h95.888094v-276.473681h831.834701V241.382003H1023.976595zM525.811981 895.995612a31.45071 31.45071 0 0 0 32.03584-30.719298v-613.654545l179.195904 172.613197a32.840392 32.840392 0 0 0 42.202464 2.194236l2.998788-2.194236 22.600627-21.942356a29.256474 29.256474 0 0 0 2.706223-40.227651l-2.706223-2.925648-272.450916-261.845443a33.498663 33.498663 0 0 0-45.201252 0L215.766497 359.139311a29.256474 29.256474 0 0 0 0 43.153299l22.600626 21.942356a33.498663 33.498663 0 0 0 45.201253 0L461.813444 252.35318V865.276314A31.45071 31.45071 0 0 0 493.776142 895.995612h31.962698z"  horiz-adv-x="1024" />
      
      <glyph glyph-name="icon_gs" unicode="&#58890;" d="M1084.235294-128H0v120.470588h60.235294V896h722.82353v-361.411765h240.941176v-542.117647h60.235294v-120.470588zM662.588235 775.529412H180.705882v-783.058824h481.882353V775.529412z m240.941177-361.411765h-120.470588v-421.647059h120.470588V414.117647zM301.176471 293.647059h240.941176v-120.470588H301.176471v120.470588z m0 301.17647h240.941176v-120.470588H301.176471V594.823529z"  horiz-adv-x="1084" />
      
      <glyph glyph-name="icon_tz" unicode="&#58891;" d="M56.888889 42.666667V384a455.111111 455.111111 0 0 0 398.222222 451.185778V896h113.777778v-60.814222A455.111111 455.111111 0 0 0 967.111111 384v-341.333333H56.888889z m796.444444 341.333333A341.333333 341.333333 0 0 1 170.666667 384v-227.555556h682.666666V384z m-56.888889-512H227.555556v113.777778h568.888888v-113.777778z"  horiz-adv-x="1024" />
      
      <glyph glyph-name="icon_yg" unicode="&#58893;" d="M625.77604-128v113.777462h398.221116v-113.777462h-398.221116z m0 227.554923v113.777462h398.221116v-113.777462h-398.221116z m-113.777462 227.554924H250.708637A137.101841 137.101841 0 0 1 113.777462 190.178672V-14.222538h398.221116v-113.777462H0v318.178672A250.708637 250.708637 0 0 0 250.708637 440.887309h35.043458A283.135214 283.135214 0 0 0 511.998578 895.997156a284.443654 284.443654 0 0 0 0-568.887309z m0 455.109847a170.666193 170.666193 0 1 1 170.666192-170.666193 170.666193 170.666193 0 0 1-170.666192 170.666193z"  horiz-adv-x="1024" />
      
      <glyph glyph-name="icon_jis" unicode="&#58894;" d="M0 42.666667V896h1024v-853.333333H0zM910.222222 782.222222H113.777778v-625.777778h796.444444V782.222222zM407.04 688.184889l80.440889-80.440889L326.542222 446.577778l160.938667-160.938667-80.440889-80.440889L165.660444 446.577778z m237.283556 0l241.379555-241.379556-241.379555-241.379555-80.440889 80.440889 160.938666 160.938666-160.938666 160.938667zM796.444444-128H227.555556v113.777778h568.888888v-113.777778z"  horiz-adv-x="1024" />
      
      <glyph glyph-name="icon_zx" unicode="&#58899;" d="M0-128V896h1024v-1024H0zM910.222222 782.222222H113.777778v-796.444444h796.444444V782.222222z m-341.333333-455.111111H227.555556V668.444444h341.333333v-341.333333zM455.111111 554.666667H341.333333v-113.777778h113.777778V554.666667z m341.333333-455.111111H227.555556v113.777777h568.888888v-113.777777z"  horiz-adv-x="1024" />
      
      <glyph glyph-name="time" unicode="&#58886;" d="M869.703553 746.167877a504.486425 504.486425 0 0 1-717.570256 0 516.381975 516.381975 0 0 1 0-724.400604 504.40968 504.40968 0 0 1 717.378392 0 516.381975 516.381975 0 0 1 0.191864 724.400604z m-66.308097-657.440171a411.125547 411.125547 0 0 0-584.762199 0 420.872223 420.872223 0 0 0 0 590.441365 411.048801 411.048801 0 0 0 584.762199 0 420.872223 420.872223 0 0 0 0-590.441365z m-94.396943 311.586657h-191.134622V587.304729a65.770878 65.770878 0 0 1-14.428151 47.927554 39.562296 39.562296 0 0 1-29.393519 11.20484 50.767136 50.767136 0 0 1-48.810127-59.209139l-0.230236-219.069978a58.94053 58.94053 0 0 1 24.174826-47.812435 58.173075 58.173075 0 0 1 37.221559-13.583951h222.17817a50.613645 50.613645 0 0 1 58.595176 49.2706 40.59836 40.59836 0 0 1-11.05135 29.738874 64.197596 64.197596 0 0 1-47.121726 14.543269z"  horiz-adv-x="1024" />
      
      <glyph glyph-name="icon_gzjy" unicode="&#58887;" d="M1059.096028 691.600863h-269.355277V824.8673A70.846369 70.846369 0 0 1 718.853478 895.550052h-291.525446a70.887273 70.887273 0 0 1-70.887273-70.682752v-133.266437H87.126387A87.085404 87.085404 0 0 1 0.040983 604.760885v-645.961812a87.044499 87.044499 0 0 1 87.085404-86.799073h972.010545a87.044499 87.044499 0 0 1 87.0445 86.799073V604.760885a87.085404 87.085404 0 0 1-87.085404 86.839978z m-609.475114 0V802.656228h247.062395v-111.055365h-247.062395zM295.738674 257.646401v40.372613h554.86778v-40.372613h93.13925v40.372613h109.41919v-333.084285H93.139329v333.12519h109.214668v-40.372614h93.139251z m554.86778 173.598146v-40.372613H295.656865v40.372613H202.353997v-40.372613h-109.214668V598.707038h960.025565v-207.835104h-109.337381v40.372613h-93.13925z"  horiz-adv-x="1146" />
      
      <glyph glyph-name="icon_adress" unicode="&#58888;" d="M1094.183385-111.773538a42.811077 42.811077 0 0 0-35.91877-16.187077H44.465231a42.811077 42.811077 0 0 0-35.918769 16.187077 39.936 39.936 0 0 0-6.340924 37.888l112.797539 327.68a42.259692 42.259692 0 0 0 42.220308 27.844923h140.681846a40.96 40.96 0 1 0 0-81.92h-110.276923l-84.48-245.76h896.393846l-84.48 245.76h-110.276923a40.96 40.96 0 1 0 0 81.92h140.681846a42.259692 42.259692 0 0 0 42.259692-27.844923l112.797539-327.68a39.936 39.936 0 0 0-6.340923-37.888z m-416.098462 229.572923a40.96 40.96 0 1 0 0-81.92h-253.44a40.96 40.96 0 1 0 0 81.92h253.44z m42.220308 181.444923L586.830769 173.922462a56.989538 56.989538 0 0 0-77.745231 0l-139.421538 131.072a315.392 315.392 0 0 0-156.278154 270.729846 338.432 338.432 0 0 0 675.879385 0 317.361231 317.361231 0 0 0-168.920616-276.519385zM551.620923 814.08H551.384615a246.193231 246.193231 0 0 1-253.44-238.316308 235.480615 235.480615 0 0 1 120.792616-204.8l4.214154-2.441846 3.938461-3.268923 124.612923-113.467077 119.965539 111.812923 5.080615 2.441846a236.622769 236.622769 0 0 1 126.739692 207.675077 246.114462 246.114462 0 0 1-251.667692 240.364308z m-0.433231-368.64a143.438769 143.438769 0 1 0 147.849846 143.36A145.723077 145.723077 0 0 0 551.384615 445.44z m0 204.8a61.479385 61.479385 0 1 1 63.369846-61.44A62.424615 62.424615 0 0 1 551.384615 650.24z"  horiz-adv-x="1102" />
      
      <glyph glyph-name="icon_person" unicode="&#58889;" d="M869.25531 229.287695a507.595547 507.595547 0 0 1-160.51862 103.980395 333.254491 333.254491 0 0 1 31.568662 26.753103 305.208321 305.208321 0 0 1 0 444.190693 336.732394 336.732394 0 0 1-462.070683 0 305.119144 305.119144 0 0 1 0-444.190693 327.235042 327.235042 0 0 1 31.524073-26.753103 508.308964 508.308964 0 0 1-160.51862-103.980395 484.899998 484.899998 0 0 1-109.241838-155.257176 466.574122 466.574122 0 0 1-40.129655-190.259154v-11.414657H107.416104v11.414657a373.5625 373.5625 0 0 0 117.535301 271.543999 414.227217 414.227217 0 0 0 568.280503 0 373.607088 373.607088 0 0 0 117.490712-271.543999v-11.414657h107.592064v11.414657a466.707888 466.707888 0 0 1-40.129655 190.259154 485.613414 485.613414 0 0 1-108.929719 155.257176zM728.979872 582.11654a219.732155 219.732155 0 1 0-219.553802 209.833507A215.094951 215.094951 0 0 0 728.979872 582.11654z m446.241764-291.742592a500.818095 500.818095 0 0 1-157.442014 123.599337 259.014629 259.014629 0 0 1-6.376156 400.984431 351.17907 351.17907 0 0 1-228.694445 81.106491h-11.32548v-104.158749h11.32548c121.057793 0 219.553801-80.928138 219.553801-180.405093a177.81896 177.81896 0 0 0-107.948772-155.167999l-1.828128 0.401296a156.148947 156.148947 0 0 1-8.917701 2.006483l-11.013361 1.917306-19.70812-102.553563 11.370069-2.006483a387.56329 387.56329 0 0 0 227.847264-131.759034 393.939447 393.939447 0 0 0 92.387383-253.485654v-11.370069h107.592064v11.370069a496.002536 496.002536 0 0 1-116.821884 319.521231z"  horiz-adv-x="1293" />
      
      <glyph glyph-name="icon_wxgzh" unicode="&#58968;" d="M858.214912-128H165.786112A166.1952 166.1952 0 0 0 0.000512 38.4v691.2A166.0416 166.0416 0 0 0 165.786112 896h692.4288A166.528 166.528 0 0 0 1024.000512 729.6v-691.2a166.1952 166.1952 0 0 0-165.7856-166.4zM384.307712 737.792c-170.4704 0-310.4768-116.48-310.4768-264.192 0-84.736 46.2848-155.136 124.1856-209.664l-31.0528-93.184 108.3648 54.528a539.0592 539.0592 0 0 1 108.9536-15.872 260.6336 260.6336 0 0 1 28.6976 1.792 235.9296 235.9296 0 0 0-9.3696 65.024c0 135.424 116.5824 245.504 264.192 245.504a233.1392 233.1392 0 0 0 29.8752-1.792C670.720512 644.864 537.190912 737.792 384.307712 737.792z m303.4624-231.936c-147.6352 0-264.192-101.376-264.192-225.536 0-124.672 116.5824-225.536 264.192-225.536a394.4192 394.4192 0 0 1 93.1328 15.872l84.9408-46.848-23.424 77.312c62.1056 46.336 108.3648 108.288 108.9536 179.2-0.0256 124.16-124.2112 225.536-263.6288 225.536z m87.8592-190.976a34.0992 34.0992 0 0 0-33.9712 34.048 33.7152 33.7152 0 0 0 33.9712 34.048 34.048 34.048 0 0 0 0.0512-68.096z m-169.2928 0a34.048 34.048 0 1 0 33.9712 34.048 34.0992 34.0992 0 0 0-33.9968-34.048z m-106.624 213.76a43.52 43.52 0 1 0 43.3408 43.52 43.3664 43.3664 0 0 0-43.3408-43.52z m-220.16 0a43.52 43.52 0 1 0 43.3408 43.52 43.3664 43.3664 0 0 0-43.4688-43.52z"  horiz-adv-x="1024" />
      
      <glyph glyph-name="icon_wxsph" unicode="&#58969;" d="M858.214912-128H165.786112A166.1952 166.1952 0 0 0 0.000512 38.4v691.2A166.0416 166.0416 0 0 0 165.786112 896h692.4288A166.528 166.528 0 0 0 1024.000512 729.6v-691.2a166.1952 166.1952 0 0 0-165.7856-166.4z m-20.7616 745.472a89.6 89.6 0 0 1-52.992 56.32 80 80 0 0 1-28.928 5.632c-42.368 0-76.2368-32.512-97.4336-57.088a1218.7392 1218.7392 0 0 1-81.1776-112.384c-11.264-16.896-23.2704-34.56-35.9936-52.736-2.1504-2.816-4.2496-6.4-6.3488-9.216-8.448-12.032-16.2816-23.296-23.2704-34.56-7.0656 11.264-14.8736 22.528-23.2704 34.56l-21.376 30.976-20.9664 30.976a1117.312 1117.312 0 0 1-81.2288 112.384c-21.2224 24.576-55.04 57.088-97.408 57.088a79.872 79.872 0 0 1-28.9024-5.632 88.7296 88.7296 0 0 1-52.992-56.576 218.2912 218.2912 0 0 1-9.856-76.8 1315.5584 1315.5584 0 0 1 26.8288-192.768 999.7056 999.7056 0 0 1 42.368-167.168 204.5952 204.5952 0 0 1 32.4352-60.16 78.8992 78.8992 0 0 1 61.44-31.744 75.9296 75.9296 0 0 1 31.8208 7.168c8.448 3.584 35.3024 16.128 90.368 105.216a867.1232 867.1232 0 0 1 51.4816 95.232 880.4864 880.4864 0 0 1 51.5072-95.232c54.3488-89.088 81.92-100.864 90.368-105.216a75.5456 75.5456 0 0 1 31.7184-7.168 79.6928 79.6928 0 0 1 61.44 31.744 214.2464 214.2464 0 0 1 32.4096 60.16 995.1232 995.1232 0 0 1 42.3424 167.168 1221.8368 1221.8368 0 0 1 26.8288 192.768 179.456 179.456 0 0 1-11.2128 77.056z m-89.6-254.208a1048.3712 1048.3712 0 0 0-33.8944-140.544 129.5104 129.5104 0 0 0-27.5456-55.04 346.9824 346.9824 0 0 0-58.5472 79.104 775.68 775.68 0 0 0-57.2416 112.128 70.784 70.784 0 0 0 7.8336 14.848 358.4 358.4 0 0 0 20.48 30.464l6.272 9.216c12.8 18.176 24.7552 35.84 36.7616 53.504a1008.2048 1008.2048 0 0 0 75.4944 104.448c26.112 29.696 37.4272 30.976 39.7568 30.976a4.864 4.864 0 0 0 1.8944-0.512 17.024 17.024 0 0 0 8.4992-9.216 133.7856 133.7856 0 0 0 5.6064-49.408 1299.584 1299.584 0 0 0-25.4464-179.968z m-408.0384-197.632a139.1104 139.1104 0 0 0-27.52 55.04 1024.8448 1024.8448 0 0 0-33.8176 140.544 1194.8032 1194.8032 0 0 0-25.6 179.968 150.4256 150.4256 0 0 0 5.6832 49.408 14.464 14.464 0 0 0 7.68 10.496 2.3296 2.3296 0 0 0 2.0736 0.768c2.0992 0 13.4144-1.536 39.5776-30.976a1067.1104 1067.1104 0 0 0 75.52-104.448c11.9552-17.152 23.9616-35.328 36.6592-53.76q3.456-4.608 6.3744-9.216a272.64 272.64 0 0 0 21.1712-31.744c4.2752-7.168 6.3744-12.032 7.68-14.848a771.3536 771.3536 0 0 0-57.1392-112.128 349.568 349.568 0 0 0-58.4192-79.104z"  horiz-adv-x="1024" />
      
      <glyph glyph-name="a-02_huaban1" unicode="&#58967;" d="M836.266667 213.333333a474.453333 474.453333 0 0 0-184.32 128.568889 201.955556 201.955556 0 0 0-21.048889 93.866667v159.288889A587.662222 587.662222 0 0 1 837.404444 668.444444 486.4 486.4 0 0 1 1024 595.057778v-170.666667c0-49.493333 27.306667-108.657778-187.733333-211.057778zM341.333333 241.777778v-113.777778H227.555556v113.777778z m170.666667 0v-113.777778H398.222222v113.777778z m-284.444444 113.777778H113.777778v-341.333334h796.444444v170.666667h113.777778v-284.444445H0v568.888889h113.777778v398.222223h455.111111v-512H227.555556z m227.555555 398.222222H227.555556v-284.444445h227.555555z m-56.888889-227.555556H284.444444v113.777778h113.777778z"  horiz-adv-x="1025" />
      
      <glyph glyph-name="a-01_huaban1" unicode="&#58966;" d="M910.222222-128H0V896h739.555556v-398.222222h284.444444v-625.777778z m-284.444444 512V782.222222H113.777778v-796.444444h512z m284.444444 0h-170.666666v-398.222222h170.666666zM227.555556 440.888889h284.444444v-113.777778H227.555556z m0 227.555555h284.444444v-113.777777H227.555556z m142.222222-455.111111A85.333333 85.333333 0 1 0 284.444444 128 85.333333 85.333333 0 0 0 369.777778 213.333333z"  horiz-adv-x="1024" />
      
      <glyph glyph-name="icon_aqfa" unicode="&#58956;" d="M694.934588-128H30.117647V896h963.764706v-749.628235zM873.411765 775.529412H150.588235v-783.058824h497.423059L873.411765 199.378824V775.529412zM271.058824 353.882353h481.882352v-120.470588H271.058824V353.882353z m0 240.941176h481.882352v-120.470588H271.058824V594.823529z"  horiz-adv-x="1024" />
      
      <glyph glyph-name="icon_yfw" unicode="&#58957;" d="M963.764706-128H0v421.647059h1084.235294v-421.647059h-120.470588z m0 301.176471H120.470588v-180.705883h843.294118v180.705883zM301.176471 52.705882H240.941176v60.235294h60.235295v-60.235294z m120.470588 0H361.411765v60.235294h60.235294v-60.235294z m120.470588 0H481.882353v60.235294h60.235294v-60.235294zM120.470588 474.352941H0V896h1084.235294v-421.647059H120.470588z m843.294118 301.176471H120.470588v-180.705883h843.294118V775.529412zM301.176471 655.058824H240.941176V715.294118h60.235295v-60.235294z m120.470588 0H361.411765V715.294118h60.235294v-60.235294z m120.470588 0H481.882353V715.294118h60.235294v-60.235294z"  horiz-adv-x="1084" />
      
      <glyph glyph-name="icon_ywaq" unicode="&#58958;" d="M887.808 201.426824a500.976941 500.976941 0 0 0-195.523765 136.31247 211.968 211.968 0 0 0-22.166588 99.448471V607.412706a614.4 614.4 0 0 1 218.714353 75.595294 516.999529 516.999529 0 0 1 198.776471-75.595294v-180.705882c-0.180706-52.464941 27.768471-114.989176-199.800471-225.28zM361.411765 233.411765v-120.470589H240.941176v120.470589h120.470589z m180.705882 0v-120.470589H421.647059v120.470589h120.470588zM240.941176 353.882353H120.470588v-361.411765h843.294118v180.705883h120.470588v-301.176471H0V474.352941h120.470588V896h481.882353v-542.117647H240.941176z m240.941177 421.647059H240.941176v-301.176471h240.941177V775.529412zM421.647059 534.588235H301.176471V655.058824h120.470588v-120.470589z"  horiz-adv-x="1089" />
      
      <glyph glyph-name="icon_sjzx" unicode="&#58959;" d="M1092.266667-128H0V896h1228.8v-1024h-136.533333z m0 887.466667H136.533333v-750.933334h955.733334V759.466667zM409.6 145.066667H273.066667V349.866667h136.533333v-204.8z m273.066667 0H546.133333V486.4h136.533334v-341.333333z m273.066666 0h-136.533333V622.933333h136.533333v-477.866666z"  horiz-adv-x="1228" />
      
      <glyph glyph-name="icon_yaq" unicode="&#58960;" d="M534.101333-128C47.530667 78.904889 64.881778 252.074667 64.881778 355.555556V760.888889C304.497778 775.054222 445.582222 834.503111 535.182222 896c90.282667-60.814222 204.060444-120.604444 439.921778-135.111111V355.555556c0-103.480889 45.511111-276.593778-441.002667-483.555556z m310.954667 483.555556V625.777778a827.392 827.392 0 0 0-309.418667 113.038222A983.552 983.552 0 0 0 194.929778 625.777778v-254.236445l162.133333 141.027556L519.992889 384l152.576 150.186667 101.432889-90.453334L519.992889 213.333333l-157.013333 125.610667-133.461334-116.053333c39.822222-54.385778 123.847111-119.808 304.583111-203.605334 354.531556 164.465778 310.954667 258.161778 310.954667 336.270223z"  horiz-adv-x="1024" />
      
      <glyph glyph-name="icon_ygfw" unicode="&#58961;" d="M955.813647 481.942588h-285.274353A122.217412 122.217412 0 0 0 542.117647 598.136471a119.687529 119.687529 0 0 0 85.594353 111.013647 167.936 167.936 0 0 0 171.188706 134.324706 173.598118 173.598118 0 0 0 162.635294-103.30353A133.782588 133.782588 0 0 0 1084.235294 611.026824a136.794353 136.794353 0 0 0-128.421647-129.084236zM120.470588-128H0V353.882353h481.882353v-481.882353H120.470588z m240.941177 361.411765H120.470588v-240.941177h240.941177v240.941177zM120.470588 414.117647H0V896h481.882353v-481.882353H120.470588z m240.941177 361.411765H120.470588v-240.941177h240.941177V775.529412z m542.117647-421.647059h120.470588v-481.882353H542.117647V353.882353h361.411765z m-240.941177-361.411765h240.941177v240.941177h-240.941177v-240.941177z"  horiz-adv-x="1084" />
      
      <glyph glyph-name="icon_gffwq" unicode="&#58962;" d="M910.222222-128H0V896h739.555556v-398.222222h284.444444v-625.777778h-113.777778z m-284.444444 512V782.222222H113.777778v-796.444444h512V384z m284.444444 0h-170.666666v-398.222222h170.666666V384zM227.555556 440.888889h284.444444v-113.777778H227.555556V440.888889z m0 227.555555h284.444444v-113.777777H227.555556V668.444444z m142.222222-455.111111A85.333333 85.333333 0 1 0 284.444444 128 85.333333 85.333333 0 0 0 369.777778 213.333333z"  horiz-adv-x="1024" />
      
      <glyph glyph-name="icon_aqfw" unicode="&#58965;" d="M798.833778-128L568.888889 8.533333v273.066667a274.716444 274.716444 0 0 1 224.142222 45.511111c66.389333-59.733333 230.968889-45.511111 230.968889-45.511111v-273.066667zM910.222222 497.777778H113.777778v-455.111111h398.222222v-113.777778H0V896h1024v-455.111111h-113.777778V497.777778z m0 284.444444H113.777778v-170.666666h796.444444V782.222222zM227.555556 668.444444H170.666667V725.333333h56.888889v-56.888889z m113.777777 0H284.444444V725.333333h56.888889v-56.888889z m113.777778 0H398.222222V725.333333h56.888889v-56.888889z"  horiz-adv-x="1024" />
      
      <glyph glyph-name="a-fanghuoqiangxuanzhong_huaban1" unicode="&#58954;" d="M341.333333 471.04H56.888889V384a526.222222 526.222222 0 0 1 10.24-106.382222H341.333333zM96.711111 186.595556c52.906667-120.035556 170.666667-233.813333 415.288889-314.595556l52.337778 18.773333v295.822223zM564.337778 859.591111A237.795556 237.795556 0 0 0 512 896a526.222222 526.222222 0 0 0-265.102222-98.986667A1443.84 1443.84 0 0 0 56.888889 782.222222v-220.16h507.448889zM655.36-71.111111a600.746667 600.746667 0 0 1 227.555556 176.355555 386.275556 386.275556 0 0 1 46.648888 80.213334h-274.204444zM431.786667 277.617778h525.084444A526.222222 526.222222 0 0 1 967.111111 384V471.04H431.786667zM967.111111 782.222222a1254.968889 1254.968889 0 0 0-311.182222 40.96v-261.12H967.111111V782.222222z"  horiz-adv-x="1024" />
      
      <glyph glyph-name="a-fanghuoqiangweixuanzhong_huaban1" unicode="&#58955;" d="M967.111111 782.222222a1254.968889 1254.968889 0 0 0-311.182222 40.96A482.417778 482.417778 0 0 0 564.337778 859.591111 237.795556 237.795556 0 0 0 512 896a526.222222 526.222222 0 0 0-265.102222-98.986667A1443.84 1443.84 0 0 0 56.888889 782.222222v-398.222222a526.222222 526.222222 0 0 1 10.24-106.382222 404.48 404.48 0 0 1 29.582222-91.022222c52.906667-120.035556 170.666667-233.813333 415.288889-314.595556l52.337778 18.773333c32.995556 12.515556 63.146667 25.6 91.022222 39.253334a600.746667 600.746667 0 0 1 227.555556 176.355555 386.275556 386.275556 0 0 1 46.648888 80.213334 404.48 404.48 0 0 1 29.582223 91.022222A526.222222 526.222222 0 0 1 967.111111 384V782.222222zM170.666667 673.564444a927.288889 927.288889 0 0 1 341.333333 85.333334 398.222222 398.222222 0 0 1 52.337778-23.893334v-170.666666H170.666667zM170.666667 384V471.04h170.666666v-193.422222H184.32A374.328889 374.328889 0 0 0 170.666667 384z m341.333333-391.395556c-153.031111 56.888889-238.364444 124.017778-284.444444 193.991112h336.782222v-170.666667c-16.497778-9.671111-34.133333-16.497778-52.337778-23.324445z m143.36 67.128889v126.862223H796.444444a428.373333 428.373333 0 0 0-141.084444-126.862223zM853.333333 384a374.328889 374.328889 0 0 0-13.653333-106.382222H431.786667v193.422222H853.333333z m-197.973333 178.062222V705.422222a1165.084444 1165.084444 0 0 1 197.973333-31.857778v-113.777777z"  horiz-adv-x="1024" />
      
      <glyph glyph-name="gou" unicode="&#58918;" d="M1365.333333 775.168s-218.453333-74.410667-473.088-372.736A2859.690667 2859.690667 0 0 1 509.952-128 1292.288 1292.288 0 0 1 0 346.453333l191.146667 186.368a1064.277333 1064.277333 0 0 0 291.498666-341.333333A2013.866667 2013.866667 0 0 0 1365.333333 896v-120.832z"  horiz-adv-x="1365" />
      
      <glyph glyph-name="qijianxuanzhong" unicode="&#58916;" d="M963.764706 896H240.941176L0 474.352941l602.352941-602.352941L1204.705882 474.352941z m-120.470588-421.647059H361.411765V594.823529h481.882353z"  horiz-adv-x="1204" />
      
      <glyph glyph-name="qijianweixuanzhong" unicode="&#58917;" d="M963.764706 896H240.941176L0 474.352941l602.352941-602.352941L1204.705882 474.352941zM180.705882 474.352941l156.611765 301.176471h524.047059L1024 474.352941l-421.647059-421.647059zM361.411765 594.823529h481.882353v-120.470588H361.411765z"  horiz-adv-x="1204" />
      
      <glyph glyph-name="qiyeweixuanzhong" unicode="&#58914;" d="M56.888889-14.222222h910.222222v-113.777778H56.888889zM967.111111 99.555556H56.888889L0 668.444444l227.555556-170.666666 284.444444 398.222222 284.444444-398.222222 227.555556 170.666666z m-227.555555 284.444444L512 668.444444 284.444444 384 113.777778 440.888889l56.888889-227.555556h682.666666l56.888889 227.555556z"  horiz-adv-x="1024" />
      
      <glyph glyph-name="qiyexuanzhong" unicode="&#58915;" d="M56.888889-14.222222h910.222222v-113.777778H56.888889zM56.888889 99.555556h910.222222l56.888889 568.888888-227.555556-170.666666-284.444444 398.222222-284.444444-398.222222-227.555556 170.666666z"  horiz-adv-x="1024" />
      
      <glyph glyph-name="putongbeixuanzhong" unicode="&#58912;" d="M512-128A455.111111 455.111111 0 0 0 291.84 725.333333h440.32A455.111111 455.111111 0 0 0 512-128zM512 554.666667a227.555556 227.555556 0 1 1 227.555556-227.555556 227.555556 227.555556 0 0 1-227.555556 227.555556z m227.555556 227.555555H284.444444L170.666667 896h682.666666l-113.777777-113.777778z"  horiz-adv-x="1024" />
      
      <glyph glyph-name="putongweixuanzhong" unicode="&#58913;" d="M728.709765 660.085349L863.366666 896H161.454312l133.596612-235.384505a424.116226 424.116226 0 1 1 433.658841 0zM333.221384 789.970943h358.378211l-45.592494-91.715133A414.043466 414.043466 0 0 1 511.880344 720.521911a424.116226 424.116226 0 0 1-133.066466-21.735956zM511.880344-21.681484a318.08717 318.08717 0 1 0 318.08717 318.087169 318.08717 318.08717 0 0 0-318.08717-318.087169zM511.880344 455.44927a159.043585 159.043585 0 1 1 159.043585-159.043585 159.043585 159.043585 0 0 1-159.043585 159.043585z m0-212.058113a53.014528 53.014528 0 1 0 53.014528 53.014528 53.014528 53.014528 0 0 0-53.014528-53.014528z"  horiz-adv-x="1024" />
      
      <glyph glyph-name="MPIS-Error" unicode="&#58911;" d="M721.877333 592.896a48.469333 48.469333 0 0 1-68.437333 0l-141.909333-141.909333-136.277334 136.234666a46.933333 46.933333 0 1 1-66.432-66.432l136.277334-136.277333-141.952-141.952a48.384 48.384 0 0 1 68.394666-68.352l141.952 141.909333 137.045334-137.002666a46.933333 46.933333 0 1 1 66.432 66.432l-137.045334 137.002666 141.952 141.952a48.469333 48.469333 0 0 1 0 68.394667M512-128C229.248-128 0 101.248 0 384 0 666.794667 229.248 896 512 896c282.794667 0 512-229.205333 512-512 0-282.752-229.205333-512-512-512"  horiz-adv-x="1024" />
      
      <glyph glyph-name="icon_bjh" unicode="&#58950;" d="M868.693333 896H155.875556A156.103111 156.103111 0 0 1 0 740.124444v-712.248888A156.103111 156.103111 0 0 1 155.875556-128h712.248888A156.103111 156.103111 0 0 1 1024 27.875556V740.124444A155.249778 155.249778 0 0 1 868.693333 896zM188.871111 548.408889c19.911111-2.275556 39.253333-4.551111 58.595556-6.257778 34.133333-2.275556 68.835556-4.551111 103.537777-7.395555a12.743111 12.743111 0 0 1 15.928889 11.946666c8.533333 41.528889 16.497778 82.488889 24.462223 123.448889 2.275556 12.515556-6.826667 11.946667-15.928889 11.946667H146.773333a29.070222 29.070222 0 0 0-32.995555 28.444444c5.688889 0.568889 11.377778 1.706667 16.497778 1.706667 178.631111 0 357.262222 0.568889 535.324444-0.568889a90.055111 90.055111 0 0 1 63.146667 20.48 24.462222 24.462222 0 0 0 32.426666 2.275556c19.911111-10.808889 40.96-21.048889 60.871111-31.288889 7.395556-3.982222 13.653333-8.533333 20.48-13.084445a15.758222 15.758222 0 0 0-0.568888-5.12 163.157333 163.157333 0 0 0-17.635556-2.844444c-88.746667 0-178.062222 0-266.808889 0.568889a23.04 23.04 0 0 1-22.755555-11.946667c-27.875556-43.804444-56.32-87.608889-85.902223-133.688889a107.52 107.52 0 0 1 16.497778-1.706667h147.342222a17.066667 17.066667 0 0 1 21.617778 9.671112 15.075556 15.075556 0 0 0 9.671111 2.844444q56.32-5.973333 112.64-13.653333a14.734222 14.734222 0 0 0 9.102222-10.808889 17.066667 17.066667 0 0 0-7.395555-12.515556c-41.528889-11.377778-82.488889-22.186667-125.155556-33.564444a56.149333 56.149333 0 0 0-0.568889 14.791111 11.662222 11.662222 0 0 1-14.222222 13.084444c-94.435556-0.568889-188.871111-0.568889-282.737778 0a12.401778 12.401778 0 0 1-15.36-14.791111v-343.608889c0-11.377778 5.12-14.222222 15.928889-14.222222h281.031111a12.401778 12.401778 0 0 1 15.36 14.791111c-0.568889 26.737778-1.137778 52.906667-0.568888 79.644445a25.6 25.6 0 0 0 10.24 17.066666q57.173333 27.306667 114.346666 52.906667a30.208 30.208 0 0 0 7.964445 2.844444c0.568889-5.12 1.706667-9.102222 1.706666-13.084444 0-70.542222-0.568889-141.084444 0-211.626667 0.568889-14.791111-4.551111-18.773333-19.911111-18.204444-32.426667 1.137778-64.853333 0.568889-97.848889 0a13.198222 13.198222 0 0 0-16.497777 15.36c-0.568889 31.857778-0.568889 31.857778-34.702223 31.857778-86.471111 0-172.942222 0-259.413333 0.568889-13.653333 0-18.204444-4.551111-17.635556-17.066667 0.568889-33.564444 4.551111-30.151111-32.426666-30.151111-28.444444-0.568889-56.888889 0-85.333334-0.568889a12.572444 12.572444 0 0 0-15.36 14.791111V536.462222c0 3.413333 1.137778 6.826667 1.706667 11.946667zM910.222222 483.555556a164.977778 164.977778 0 0 0-154.168889-93.297778 141.027556 141.027556 0 0 1 59.164445-15.928889 55.921778 55.921778 0 0 0-6.826667-8.533333 250.311111 250.311111 0 0 0-187.164444-54.613334 50.232889 50.232889 0 0 1-14.791111-3.413333 96.711111 96.711111 0 0 1 13.084444-9.671111c9.671111-3.982222 19.911111-7.395556 32.995556-12.515556a299.861333 299.861333 0 0 0-129.706667-40.391111c-22.755556-1.137778-46.08 1.706667-68.835556 1.137778a33.109333 33.109333 0 0 1-19.911111-8.533333c-26.737778-25.6-52.337778-51.768889-79.075555-79.075556a563.2 563.2 0 0 0 222.435555 246.897778C676.977778 463.075556 837.973333 501.76 910.222222 483.555556z"  horiz-adv-x="1024" />
      
      <glyph glyph-name="icon_dy" unicode="&#58951;" d="M868.124444-128H155.875556A156.103111 156.103111 0 0 0 0 27.875556V740.124444A156.103111 156.103111 0 0 0 155.875556 896h712.817777A155.249778 155.249778 0 0 0 1024 740.124444v-712.248888A156.103111 156.103111 0 0 0 868.124444-128zM796.444444 519.395556A151.836444 151.836444 0 0 0 642.275556 668.444444H526.791111v-427.804444a92.216889 92.216889 0 1 0-92.16 88.746667 88.462222 88.462222 0 0 0 32.426667-5.688889V438.044444A209.294222 209.294222 0 0 1 434.062222 440.888889a199.111111 199.111111 0 1 1 206.506667-199.111111V456.817778a273.351111 273.351111 0 0 1 155.306667-47.217778H796.444444V519.395556z"  horiz-adv-x="1024" />
      
      <glyph glyph-name="icon_tt" unicode="&#58952;" d="M888.332635-127.915081H195.734309A191.27759 191.27759 0 0 0 0 41.922073l1084.066945 62.03272v-46.976234A190.554879 190.554879 0 0 0 888.332635-127.915081z m-244.517322 290.891296l-84.918577-3.613556v3.613556a103.528393 103.528393 0 0 1 13.851967 25.294896 562.931874 562.931874 0 0 0 29.510711 49.385272 38.905958 38.905958 0 0 0 13.249707 23.488117 484.879054 484.879054 0 0 0 58.419163 5.420335 80.943665 80.943665 0 0 1 21.681339 1.204518h0.602259a4.516946 4.516946 0 0 0 2.409038-5.420334 133.40046 133.40046 0 0 1-13.851966-25.897155c-13.249707-24.090377-27.703933-48.783013-40.953641-73.475649z m301.731967 118.042846l3.613556 1.204518a1102.797213 1102.797213 0 0 0 61.43046-97.566025h-19.272301a359.428418 359.428418 0 0 0-67.453054-4.215816c-12.045188 20.47682-25.897155 39.146862-38.544603 58.419164a167.669021 167.669021 0 0 1-22.283598 35.533305 196.577473 196.577473 0 0 0 56.612385 4.818075 185.014092 185.014092 0 0 1 20.47682 1.806779h5.420335z m-212.597573-109.611214a181.159632 181.159632 0 0 0 0 36.135565v77.089205a53.239732 53.239732 0 0 1-13.851967 0 222.414402 222.414402 0 0 0-50.589791-2.409038c-15.658745-2.409038-33.726527 1.204519-51.19205-2.409037a373.400837 373.400837 0 0 0-57.816904-4.215816v52.396569l172.246193 9.033891a93.229757 93.229757 0 0 1 0 25.897155h2.409037c6.624854 2.409038 19.874561-1.806778 28.306193 0a264.512335 264.512335 0 0 0 53.601088 3.011297v-25.294895c60.828201 0 110.815732 8.431632 174.05297 8.431631v-51.19205l-1.806778-0.602259c-55.407866-3.613556-111.417992-9.033891-169.234895-9.033891a126.474477 126.474477 0 0 1-4.215816-33.726528v-78.293723c-25.897155-1.204519-60.225941-3.011297-81.90728-4.818076z m167.428117 377.616653c-21.681339-7.227113-51.79431 1.204519-75.884686-4.215816a380.447272 380.447272 0 0 0-45.771716-3.613557h-27.101674a458.198962 458.198962 0 0 0-75.884686-4.215816c-11.442929-16.863264-24.692636-33.726527-36.135565-50.58979a27.041448 27.041448 0 0 0-15.056485-18.067783 245.240033 245.240033 0 0 1-45.771715 16.863264 31.197038 31.197038 0 0 0-22.283599 10.23841 172.547322 172.547322 0 0 1 27.703933 41.555899c18.670042 28.306192 39.749121 56.010125 57.816904 84.918578l65.044017-30.112971A291.674234 291.674234 0 0 1 782.937238 594.796215c71.066611 3.613556 135.508368 6.624854 202.961422 11.442929a387.855063 387.855063 0 0 0 0-91.543431l-135.508368-63.839498a244.276418 244.276418 0 0 1 49.987532-16.863263c15.658745-6.624854 31.919749-12.647448 48.180753-18.067783l41.555899 3.011297a186.700418 186.700418 0 0 0 0-51.794309v-1.806778l-60.8282-3.613557q-24.090377 8.130502-46.976235 18.067782c-21.079079 8.431632-40.95364 12.045188-62.032719 19.874561a203.74436 203.74436 0 0 1-49.987532 16.863264 290.951523 290.951523 0 0 0-62.032719-28.908452c-24.090377-11.442929-47.578494-23.488117-72.873389-33.726527a126.474477 126.474477 0 0 0-18.067783-9.033892l-57.816904-3.011297a191.157138 191.157138 0 0 0-1.806778 52.396569 90.338912 90.338912 0 0 0 18.067783 0c5.420335 2.409038 18.670042 0 24.692636 2.409038h0.602259c32.522008 12.647448 63.839498 30.112971 95.759247 44.567197v1.806778a150.926209 150.926209 0 0 0-55.407866 23.488117 237.832243 237.832243 0 0 0 36.135565 45.771715 121.355272 121.355272 0 0 1 37.942343-12.045188 242.891222 242.891222 0 0 1 60.8282-21.079079 95.397891 95.397891 0 0 0 26.499415 11.442929l65.646276 32.522008a69.259833 69.259833 0 0 1 31.919749 15.658745 19.874561 19.874561 0 0 1 0 8.431631v1.806779z m-722.711297-85.520837v1.204519a378.821171 378.821171 0 0 0-43.964937 53.601088 103.347715 103.347715 0 0 0-22.283598 25.897154h26.499414l67.453054 3.613557c12.647448-19.874561 31.919749-35.533305 46.373975-56.010126a43.964937 43.964937 0 0 0 19.272301-25.897154l-71.066611-2.409038a35.232176 35.232176 0 0 0-22.283598 0z m30.71523-101.781841a106.660142 106.660142 0 0 0-27.703933 0l-0.602259 2.409038a64.742887 64.742887 0 0 0-22.283599 25.294895c-13.249707 18.067782-33.726527 34.328787-46.976234 54.203347a40.351381 40.351381 0 0 0 12.045188 0 88.532134 88.532134 0 0 0 25.294896 0 206.213623 206.213623 0 0 0 57.816904 3.011297 75.884686 75.884686 0 0 1 16.863263-19.87456c10.23841-13.851967 20.47682-26.499414 31.31749-40.351381a61.550912 61.550912 0 0 0 16.863263-20.47682z m308.35682-203.563682a90.338912 90.338912 0 0 0-33.726527-2.409038l-57.816904-3.011297c-13.851967 29.510711-30.112971 57.816904-45.169456 86.123097a120.451883 120.451883 0 0 0-19.874561 37.942343l92.74795 4.215816-0.602259-0.60226c17.465523-28.908452 31.31749-59.623682 48.180753-90.338912a62.394075 62.394075 0 0 0 16.261004-31.919749zM174.65523 283.428098a581.903046 581.903046 0 0 0-96.963766-5.420334v52.396569l244.517322 13.249707a285.410736 285.410736 0 0 1 0 71.66887V571.308098a76.788075 76.788075 0 0 0 23.488118 0 76.547171 76.547171 0 0 0 23.488117 0l37.340083 3.011297a285.410736 285.410736 0 0 0 0-71.66887v-155.985188l101.781841 5.420334a195.252502 195.252502 0 0 0 0-52.998828 105.997657 105.997657 0 0 0-24.090376-1.204519l4.215816 3.613557a259.272678 259.272678 0 0 0-49.987532-3.011297 517.461288 517.461288 0 0 0-81.305021-4.818076c-24.090377-36.135565-59.021423-69.862092-85.520836-104.793138a181.099406 181.099406 0 0 0-36.135565-42.760418 213.561188 213.561188 0 0 0-49.385272-2.409038 174.052971 174.052971 0 0 1-30.71523 0 386.289188 386.289188 0 0 0-74.680168-5.420335v52.396569a90.338912 90.338912 0 0 0 18.067783 0 606.896811 606.896811 0 0 0 77.089205 6.022595 112.321381 112.321381 0 0 0 22.885858 27.703933c10.840669 14.454226 22.885858 28.908452 33.726527 43.362677a85.821966 85.821966 0 0 0 15.056485 18.067783h-27.703933a179.593757 179.593757 0 0 0-45.169456-2.409038zM0 711.032282A190.554879 190.554879 0 0 0 195.734309 895.925922h692.598326A190.97646 190.97646 0 0 0 1084.066945 718.259395L0 656.828935v54.203347z"  horiz-adv-x="1084" />
      
      <glyph glyph-name="icon_wb" unicode="&#58953;" d="M430.648889 427.804444c-140.515556-6.257778-254.862222-81.92-254.862222-175.786666s114.346667-163.84 254.862222-157.582222 254.293333 94.435556 254.293333 188.302222-113.777778 151.893333-254.293333 145.066666z m95.573333-236.088888a163.726222 163.726222 0 0 0-211.057778-38.115556 73.329778 73.329778 0 0 0-37.546666 63.715556 131.925333 131.925333 0 0 0 125.155555 148.48 114.176 114.176 0 0 0 123.448889-174.08z m-95.004444 88.746666a20.935111 20.935111 0 0 1-5.688889-27.306666 16.554667 16.554667 0 0 1 24.462222-2.275556 21.731556 21.731556 0 0 1 7.395556 27.306667 17.066667 17.066667 0 0 1-26.168889 2.275555z m-66.56-18.204444a50.460444 50.460444 0 0 1-45.511111-47.786667 38.286222 38.286222 0 0 1 47.786666-34.133333 50.517333 50.517333 0 0 1 47.217778 44.942222 39.822222 39.822222 0 0 1-49.493333 36.977778zM868.693333 896H155.875556A156.103111 156.103111 0 0 1 0 740.124444v-712.248888A156.103111 156.103111 0 0 1 155.875556-128h712.248888A156.103111 156.103111 0 0 1 1024 27.875556V740.124444A155.249778 155.249778 0 0 1 868.693333 896z m-58.026666-675.84c-58.026667-122.88-249.173333-182.613333-390.826667-171.804444-134.826667 10.808889-307.768889 55.182222-325.973333 217.884444a256.796444 256.796444 0 0 0 62.577777 169.528889s102.4 143.928889 222.435556 184.888889 133.688889-28.444444 133.688889-69.404445c-6.257778-34.702222-18.204444-54.613333 26.737778-40.96 0 0 117.76 54.613333 166.684444 6.257778a79.644444 79.644444 0 0 0 6.826667-93.297778s-16.497778-17.635556 17.066666-24.462222a118.044444 118.044444 0 0 0 80.782223-178.631111z m-116.053334 340.764444a23.04 23.04 0 1 0 0 46.08 104.334222 104.334222 0 0 0 127.431111-128 5.12 5.12 0 0 0-0.568888-2.844444 22.755556 22.755556 0 0 0-22.755556-19.342222 23.438222 23.438222 0 0 0-23.324444 23.324444 62.577778 62.577778 0 0 1-80.782223 80.782222z m244.053334-124.586666a27.591111 27.591111 0 0 0-32.426667-28.444445 30.549333 30.549333 0 0 0-33.564444 30.151111 101.319111 101.319111 0 0 0 6.257777 32.426667 153.6 153.6 0 0 1-10.24 112.071111 178.574222 178.574222 0 0 1-167.253333 83.057778 144.952889 144.952889 0 0 0-30.151111-7.395556 33.621333 33.621333 0 0 0-9.102222 65.991112l0.568889 1.137777c1.137778 0 2.275556 1.137778 3.413333 1.137778a281.543111 281.543111 0 0 0 115.484444 1.137778c89.884444-21.048889 212.195556-106.951111 157.013334-291.271111z m0 0"  horiz-adv-x="1024" />
      
      <glyph glyph-name="duanxinicon" unicode="&#58909;" d="M714.105263 330.105263v-458.105263H40.421053V896h673.68421v-188.631579h-53.894737V842.105263H94.315789v-619.789474h565.894737v107.789474h53.894737zM94.315789 168.421053v-242.526316h565.894737v242.526316H94.315789z m215.578948-80.842106h134.736842v-80.842105h-134.736842v80.842105zM602.543158 330.105263h-78.686316L417.684211 249.263158V734.315789h565.894736v-404.210526H602.543158zM929.684211 680.421053H471.578947v-323.368421l52.277895 26.947368H929.684211V680.421053z m-229.052632-107.789474a40.421053 40.421053 0 1 0-40.421053-40.421053 40.421053 40.421053 0 0 0 40.421053 40.421053z m134.736842 0a40.421053 40.421053 0 1 0-40.421053-40.421053 40.421053 40.421053 0 0 0 40.421053 40.421053z m-269.473684-80.842105a40.421053 40.421053 0 1 0 40.421052 40.421052 40.421053 40.421053 0 0 0-40.421052-40.421052z"  horiz-adv-x="1024" />
      
      <glyph glyph-name="icon_seach" unicode="&#58895;" d="M1023.770292-41.171482l-242.569574 242.505588a434.078604 434.078604 0 1 1-86.764532-86.764533L936.941774-128zM122.532507 461.755674a311.482111 311.482111 0 1 0 311.482111-311.418126 312.057982 312.057982 0 0 0-311.482111 311.418126z m0 0"  horiz-adv-x="1024" />
      
      <glyph glyph-name="icon_xiala_normal" unicode="&#58896;" d="M1074.45480279 390.72809207a49.97912025 49.97912025 0 0 1-15.86898409 36.3187055l-466.98984723 440.4870078a54.23266196 54.23266196 0 0 1-74.60058496-0.73618983 49.07933236 49.07933236 0 0 1 0.73618981-71.90122182L946.19414759 390.72809207 517.7315763-13.440209630000027A49.07933236 49.07933236 0 0 1 516.99538651-85.34143142999994a54.23266196 54.23266196 0 0 1 74.60058496-0.73619035l466.98984724 440.48700774A49.97912025 49.97912025 0 0 1 1074.45480279 390.72809207z m0 0"  horiz-adv-x="1759" />
      
      <glyph glyph-name="icon_list" unicode="&#58897;" d="M116.281379 430.65728h232.487432a116.280282 116.280282 0 0 1 116.280283 116.353415V779.717524a116.353414 116.353414 0 0 1-116.280283 116.353414H116.281379A116.20715 116.20715 0 0 1 0.074229 779.717524v-232.706829a116.280282 116.280282 0 0 1 116.20715-116.353415zM93.025323 779.717524a23.329189 23.329189 0 0 0 23.256056 23.256056h232.487432a23.256056 23.256056 0 0 0 23.256057-23.256056v-232.706829a23.548585 23.548585 0 0 0-6.8013-16.454757 23.256056 23.256056 0 0 0-16.454757-6.8013H116.281379a23.256056 23.256056 0 0 0-16.454757 6.8013 23.548585 23.548585 0 0 0-6.801299 16.454757V779.717524zM907.645489 896.070938H675.158056a116.353414 116.353414 0 0 1-117.011604-117.011604v-232.706829a117.011605 117.011605 0 0 1 116.280282-116.280283h232.4143a117.011605 117.011605 0 0 1 116.280282 116.280283V779.059334a117.011605 117.011605 0 0 1-115.329563 117.011604z m23.256056-349.060243a23.69485 23.69485 0 0 0-23.256056-23.256057H675.158056a23.256056 23.256056 0 0 0-23.256056 23.256057V779.717524a23.329189 23.329189 0 0 0 23.256056 23.256056h232.194904a23.256056 23.256056 0 0 0 23.256056-23.256056v-232.706829z m-23.256056-209.450773H675.158056a116.280282 116.280282 0 0 1-116.20715-116.353414v-232.926226a117.011605 117.011605 0 0 1 116.20715-116.353414h232.194904a117.011605 117.011605 0 0 1 116.280282 116.353414V220.913979a117.011605 117.011605 0 0 1-116.280282 116.353414z m23.256056-348.987111a23.767982 23.767982 0 0 0-23.256056-23.329188H675.158056a23.329189 23.329189 0 0 0-23.256056 23.329188V221.206508a23.329189 23.329189 0 0 0 23.256056 23.329189h232.194904a23.256056 23.256056 0 0 0 23.256056-23.329189v-232.926226z m-582.132734 348.987111H116.281379A117.011605 117.011605 0 0 1 0.074229 220.548318v-232.706829a117.011605 117.011605 0 0 1 116.20715-115.402695h232.487432a117.011605 117.011605 0 0 1 116.280283 116.353414V221.425905a116.280282 116.280282 0 0 1-116.280283 116.353414z m23.256057-348.987111a23.256056 23.256056 0 0 0-23.256057-23.329188H116.281379a23.841114 23.841114 0 0 0-23.256056 23.329188V221.206508a23.329189 23.329189 0 0 0 23.256056 23.329189h232.487432a23.256056 23.256056 0 0 0 23.256057-23.329189v-232.926226z m0 0"  horiz-adv-x="1024" />
      
      <glyph glyph-name="shuaxin" unicode="&#59518;" d="M208.784092 659.308435A409.380572 409.380572 0 0 0 921.106287 384h102.345143A511.725715 511.725715 0 0 1 132.53696 727.87968l-56.289828 51.172572-41.449783-238.464183 231.811749 66.524343zM814.667338 108.691565A409.380572 409.380572 0 0 0 102.345143 384H0a511.725715 511.725715 0 0 1 890.91447-343.87968l56.289828-51.172572 41.961509 237.952457-231.811749-66.524342z"  horiz-adv-x="1024" />
      
      <glyph glyph-name="zhengfangxing1" unicode="&#58885;" d="M384.427486 428.084167l255.82655 0 0-254.472715-255.82655 0 0 254.472715Z"  horiz-adv-x="1024" />
      
      <glyph glyph-name="right" unicode="&#58892;" d="M81.064 619.245c-29.315-28.497-29.315-74.739 0-103.307l378.01100001-367.236c29.367-28.483 76.982-28.483 106.29099999 1e-8l377.997 367.23599999c29.367 28.562 29.367 74.806 0 103.307-29.325 28.546-76.929 28.54600001-106.30399999 0l-324.84100001-315.6-324.803 315.599c-29.367 28.545-76.973 28.544-106.356 0l0 0z"  horiz-adv-x="1024" />
      
      <glyph glyph-name="you" unicode="&#59012;" d="M785.024 441.813333C634.837333 587.008 484.650667 732.202667 334.464 877.226667 272.64 937.088 180.48 839.893333 242.645333 779.946667c133.632-129.28 267.306667-258.346667 400.853334-387.584-134.272-133.632-268.544-267.434667-402.944-401.066667-61.098667-60.842667 31.061333-158.037333 91.989333-97.28l452.522667 450.474667c24.917333 24.96 25.6 72.661333 0 97.28v0.042666z"  horiz-adv-x="1024" />
      
      <glyph glyph-name="caidan" unicode="&#58883;" d="M438.857143 347.428571a36.571429 36.571429 0 0 0 36.571428-36.571428v-256a36.571429 36.571429 0 0 0-36.571428-36.571429H182.857143a36.571429 36.571429 0 0 0-36.571429 36.571429v256a36.571429 36.571429 0 0 0 36.571429 36.571428h256z m402.285714 0a36.571429 36.571429 0 0 0 36.571429-36.571428v-256a36.571429 36.571429 0 0 0-36.571429-36.571429h-256a36.571429 36.571429 0 0 0-36.571428 36.571429v256a36.571429 36.571429 0 0 0 36.571428 36.571428h256z m-438.857143-73.142857H219.428571v-182.857143h182.857143v182.857143z m402.285715 0h-182.857143v-182.857143h182.857143v182.857143zM438.857143 749.714286a36.571429 36.571429 0 0 0 36.571428-36.571429v-256a36.571429 36.571429 0 0 0-36.571428-36.571428H182.857143a36.571429 36.571429 0 0 0-36.571429 36.571428V713.142857a36.571429 36.571429 0 0 0 36.571429 36.571429h256z m402.285714 0a36.571429 36.571429 0 0 0 36.571429-36.571429v-256a36.571429 36.571429 0 0 0-36.571429-36.571428h-256a36.571429 36.571429 0 0 0-36.571428 36.571428V713.142857a36.571429 36.571429 0 0 0 36.571428 36.571429h256zM402.285714 676.571429H219.428571v-182.857143h182.857143V676.571429z m402.285715 0h-182.857143v-182.857143h182.857143V676.571429z"  horiz-adv-x="1024" />
      
      <glyph glyph-name="kongxingyuan" unicode="&#58882;" d="M512 525c37.66 0 73.07-14.67 99.7-41.3 26.63-26.63 41.3-62.04 41.3-99.7s-14.67-73.07-41.3-99.7C585.07 257.66999999999996 549.66 243 512 243s-73.07 14.67-99.7 41.3C385.67 310.92999999999995 371 346.34000000000003 371 384s14.67 73.07 41.3 99.7c26.63 26.63 62.04 41.3 99.7 41.3m0 127c-148.01 0-268-119.99-268-268s119.99-268 268-268 268 119.99 268 268-119.99 268-268 268z"  horiz-adv-x="1024" />
      
      <glyph glyph-name="icon_zzq" unicode="&#58964;" d="M563.12580481 299.55857683a68.80530839 68.80530839 0 0 0-47.02947555-17.38905021 75.08907858 75.08907858 0 0 0-60.18982421 27.3482328 142.27404398 142.27404398 0 0 0-23.15905266 91.68771722 132.98671022 132.98671022 0 0 0 23.47521713 87.77518093 77.26270995 77.26270995 0 0 0 61.25687956 27.07158897 70.06996702 70.06996702 0 0 0 71.57174881-56.94913825l67.85681423 16.20343289a134.36993082 134.36993082 0 0 1-34.73857899 62.5215382 141.28602995 141.28602995 0 0 1-101.21217416 36.83316905 150.17815793 150.17815793 0 0 1-115.08389305-46.91091359 185.74666835 185.74666835 0 0 1-43.74926817-131.64301106 176.81502047 176.81502047 0 0 1 43.47262436-126.46581687 159.90021735 159.90021735 0 0 1 201.55489546-19.20699646 149.19014312 149.19014312 0 0 1 50.82344991 82.51894542l-66.4735944 21.10398326a101.01457088 101.01457088 0 0 0-28.37576827-54.49886229zM511.98619044-11.5078125a395.48232156 395.48232156 0 1 0 395.48232156 395.48232156A395.91704798 395.91704798 0 0 0 511.98619044-11.5078125z m0 725.59762473a330.15482304 330.15482304 0 1 1 330.19434371-330.11530317A330.51050817 330.51050817 0 0 1 511.98619044 714.08981224z"  horiz-adv-x="1024" />
      
      <glyph glyph-name="icon_awards" unicode="&#59455;" d="M864.00195313 732.046875H773.03515625V771.59765625a7.91015625 7.91015625 0 0 1-7.91015625 7.91015625H258.875a7.91015625 7.91015625 0 0 1-7.91015625-7.91015625v-39.55078125H159.99804687A43.50585938 43.50585938 0 0 1 116.4921875 688.54101563V542.203125a162.48391539 162.48391539 0 0 1 136.65958193-160.2039295 253.40418217 253.40418217 0 0 1 223.34558842-217.99460022v-104.04181935H282.60546875a31.5940949 31.5940949 0 0 1-31.640625-31.640625v-31.91980718a7.91015625 7.91015625 0 0 1 7.91015625-7.91015625h506.25a7.91015625 7.91015625 0 0 1 7.91015625 7.91015625v31.91980718a31.5940949 31.5940949 0 0 1-31.640625 31.640625H547.59570313v104.04181935a253.40418217 253.40418217 0 0 1 223.34558842 217.99460023A162.48391539 162.48391539 0 0 1 907.5078125 542.203125V688.54101563a43.50585938 43.50585938 0 0 1-43.50585938 43.50585937zM187.68359375 542.203125V660.85546875h63.28125v-205.24528925A90.92026677 90.92026677 0 0 0 187.68359375 542.203125z m514.16015625-126.5625a181.88706365 181.88706365 0 0 0-181.93359375-181.93359375h-15.8203125a181.88706365 181.88706365 0 0 0-181.93359375 181.93359375V708.31640625h379.6875v-292.67578125z m134.47265625 126.5625a90.92026677 90.92026677 0 0 0-63.28125-86.5929455V660.85546875h63.28125V542.203125z m0 0"  horiz-adv-x="1024" />
      
      <glyph glyph-name="dingwei" unicode="&#58963;" d="M512.168003-24.174378000000047c-155.282426 0-312.004875 38.496602-312.004875 124.513946 0 67.20105 107.281676 108.8177 207.027234 119.04186l5.472086 0.62401L274.804294 421.75259a236.019688 236.019688 0 0 0-12.336193 22.848357l-3.648057 6.672104-0.576009 2.688042A228.387569 228.387569 0 0 0 240.00375 543.146487C240.00375 680.236629 362.069657 791.838372 512.120002 791.838372c150.050345 0 272.116252-111.601744 272.116252-248.691885 0-30.528477-6.144096-60.528946-18.288286-89.185394l-1.872029-4.320067h0.192003l-1.440023-2.592041c-3.984062-8.592134-8.352131-16.800263-13.104205-24.576384l-237.843716-360.725636-56.256879 84.145315-2.160034-0.192003c-91.249426-7.152112-149.426335-30.144471-164.642572-42.960672l-2.688042-2.400037 2.784043-2.352037c19.920311-16.848263 96.385506-43.584681 217.731402-44.400694h10.84817c121.105892 0.816013 197.76309 27.456429 217.875404 44.304693l2.832044 2.400037-2.880045 2.304036c-11.136174 9.024141-51.696808 26.784419-114.145783 37.248582l47.952749 70.129096c100.033563-20.592322 155.042423-59.472929 155.042423-109.633713-0.048001-86.017344-156.722449-124.513946-312.004875-124.513946z m0 701.482961c-63.985 0-116.017813-47.616744-116.017813-106.081658 0-58.416913 52.032813-105.985656 116.017813-105.985656 63.985 0 116.065814 47.520743 116.065813 105.985656 0 58.464914-52.080814 106.081658-116.065813 106.081658z"  horiz-adv-x="1024" />
      
      <glyph glyph-name="xingzhuang24" unicode="&#59423;" d="M607.89119977 0.4371761800000513a395.3330753 395.3330753 0 0 0-470.44635942 256.17583294 24.55018418 24.55018418 0 0 0 2.76733185 20.95265285 26.48731579 26.48731579 0 0 0 18.58065423 10.67399342h426.1690551a37.0427094 37.0427094 0 0 1 33.60331166 22.92931824l0.79066569 1.58133215 59.69529499 162.0865606a2.92546469 2.92546469 0 0 1-0.39533323 3.55799833 3.24173113 3.24173113 0 0 1-2.37199863 1.58133215H338.27404308a23.87811754 23.87811754 0 0 0-1.58133291 47.71670206h337.21911322a51.63049983 51.63049983 0 0 0 41.90530646-18.93645444l1.18599893-1.73946576a51.15609979 51.15609979 0 0 0 7.90666157-46.88650259l-0.79066648-1.97666538-60.09062745-161.69122736a85.1942777 85.1942777 0 0 0-76.29928304-56.13729666H195.16346918l1.58133293-3.55799834a347.65590625 347.65590625 0 0 1 394.14707559-191.34120823l5.53466295 1.18599971a347.53730645 347.53730645 0 1 1-430.91305158 361.33443038h256.5711654a23.91765132 23.91765132 0 0 0 1.18599968-47.83530186h-276.73315331c-1.18599893 0-1.9766654 0.39533322-3.16266432 0.39533323s-1.9766654-0.39533322-2.76733108-0.39533323a23.7199847 23.7199847 0 0 0-24.11531794 23.71998471 395.3330753 395.3330753 0 1 0 491.39901225-383.39401692z"  horiz-adv-x="1024" />
      
      <glyph glyph-name="xingzhuang25" unicode="&#59422;" d="M862.57320278 148.92975629a24.42975283 24.42975283 0 0 0-9.66644963-22.40858663l-175.75361732-131.815213a30.75688287 30.75688287 0 0 0-23.72673847-5.27260888 12.83001389 12.83001389 0 0 0-3.95445628-0.87876739H250.95061319A87.34954808 87.34954808 0 0 0 160.43750008 71.59816463000004V696.31439801A87.34954808 87.34954808 0 0 0 250.95061319 779.44585913h521.98824386A87.34954808 87.34954808 0 0 0 863.45197016 696.31439801v-544.83621417a6.23925316 6.23925316 0 0 0-0.87876738-2.54842755zM687.69835283 71.15878017l100.61894643 75.57405536h-71.18021538a28.07664076 28.07664076 0 0 1-29.43873104-26.36304213v-49.21101323z m117.31553971 625.15561784a31.4159588 31.4159588 0 0 1-32.07503549 30.40537608H250.95061319a31.4159588 31.4159588 0 0 1-32.07503549-30.40537608V71.59816463000004a31.37202112 31.37202112 0 0 1 32.07503548-30.31749918h378.30966204V120.36979339000004a83.79053705 83.79053705 0 0 0 87.87680866 79.08912796h87.87680865V696.31439801zM306.75238637 357.63717726000004a26.36304291 26.36304291 0 1 0 0 52.72608503h410.3846975a26.36304291 26.36304291 0 1 0 1e-8-52.72608503H306.75238637z m410.3846975 184.54129802H306.75238637a26.36304291 26.36304291 0 1 0 0 52.72608582h410.3846975a26.36304291 26.36304291 0 1 0 1e-8-52.72608582z m-410.3846975-316.35651181h234.63108018a26.36304291 26.36304291 0 1 0 1e-8-52.72608504H306.75238637a26.36304291 26.36304291 0 1 0 0 52.72608504z"  horiz-adv-x="1024" />
      
      <glyph glyph-name="close" unicode="&#59414;" d="M882.78857422 697.13095093L825.31634521 754.78857422 512 441.70397187 198.68365479 754.78857422 141.21142578 697.13095093 454.52777099 384 141.21142578 70.91539764000004 198.68365479 13.211425780000013 512 326.34237671000005 825.31634521 13.211425780000013 882.78857422 70.91539764000004 569.47222901 384z m0 0"  horiz-adv-x="1024" />
      
      <glyph glyph-name="problem" unicode="&#59421;" d="M512-11.5078125a395.5078125 395.5078125 0 1 0 395.5078125 395.5078125 395.5078125 395.5078125 0 0 0-395.5078125-395.5078125z m0 734.53710937A338.98974609 338.98974609 0 1 1 850.95019531 384 337.60546875 337.60546875 0 0 1 512 723.02929687zM572.1171875 384c-33.61816406-26.49902345-41.1328125-37.57324219-41.1328125-60.1171875v-15.02929688H466.91210937v26.10351563a94.68457031 94.68457031 0 0 0 49.04296875 83.05664063 64.50732422 64.50732422 0 0 1 33.61816407 60.11718749c0 41.48876953-15.02929689 49.00341797-64.07226564 49.00341797a242.01123047 242.01123047 0 0 1-75.14648436-11.31152343V579.85546875a321.19189453 321.19189453 0 0 0 86.61621092 11.31152344c90.17578125 0 131.70410156-22.58349609 131.70410158-101.56640625A119.48291015 119.48291015 0 0 0 572.1171875 384z m-71.58691406-116.67480469c34.01367188 0 45.48339844-3.95507813 45.48339843-45.48339844a36.50537109 36.50537109 0 0 0-45.48339843-45.08789062c-37.57324219 0-45.08789063 7.51464844-45.08789063 45.08789062s7.51464844 45.48339844 45.08789063 45.48339844z"  horiz-adv-x="1024" />
      
      <glyph glyph-name="shopping" unicode="&#59418;" d="M304.29623414 567.15296142l113.81052136-308.24773057-23.98305977 16.13405877h474.42853373a24.02666582 24.02666582 0 1 0 0-47.96612027H394.12369573a25.11680451 25.11680451 0 0 0-23.54700446 16.13405805L193.53810225 722.86842943l23.9830605-16.04684742H166.50265299a24.02666582 24.02666582 0 1 0 0 47.96612028h51.01850976a25.02959387 25.02959387 0 0 0 23.54700445-16.04684743L286.85400866 615.11908097h613.96633836a24.41911582 24.41911582 0 0 0 24.85517116-28.77967201l-40.55317387-186.50099613a24.63714385 24.63714385 0 0 0-21.80278241-19.18644826l-372.82757028-39.6810625a25.37843783 25.37843783 0 0 0-27.90756064 21.36672562 24.98598783 24.98598783 0 0 0 22.23883775 26.59939394l354.94928872 38.80895183s17.87828082 78.49001507 30.95995084 139.53780464c0.43605533 1.35177275-458.73053101 0.3488447-566.43627415 0z m146.95075031-438.19231072a34.88445098 34.88445098 0 1 0-36.62867375-34.88445098 35.66935101 35.66935101 0 0 0 36.62867375 34.88445098m0 45.78584217a80.80110982 80.80110982 0 1 1 85.03084935-80.67029315 82.85057124 82.85057124 0 0 1-85.03084935 80.67029315z m353.64112204-45.78584217a34.88445098 34.88445098 0 1 0-36.62867376-34.88445098 35.93098435 35.93098435 0 0 0 36.62867374 34.88445098m0 45.78584217a80.75750378 80.75750378 0 1 1 84.59479402-80.67029315 82.85057124 82.85057124 0 0 1-84.59479402 80.67029315z m0 0"  horiz-adv-x="1084" />
      
      <glyph glyph-name="chart" unicode="&#59419;" d="M201.94550255 754.8265844a39.0762665 39.0762665 0 0 0 39.86428131-37.91742114v-628.09420066h715.70291194a37.82471385 37.82471385 0 1 0 0-75.5567197H201.94550255a38.473667 38.473667 0 0 0-39.40074344 38.01012915V716.90916326a38.65908228 38.65908228 0 0 0 39.40074345 37.91742114z m760.66611334-166.41019817a36.57316046 36.57316046 0 0 0-0.46353859-53.21417993l-0.46353785-0.41718422-264.68028676-246.18511441a50.34024403 50.34024403 0 0 0-67.21303314 1e-8l-0.46353785 0.46353786-109.85854305 104.75962296-138.13436989-131.6448355a40.18875824 40.18875824 0 0 0-55.16104081 0l-0.46353787 0.46353787a36.52680682 36.52680682 0 0 0-0.46353858 52.84334934l0.46353858 0.46353859 159.4571252 152.04051508a49.96941346 49.96941346 0 0 0 67.67657101 0.92707645l0.46353786-0.92707645 110.3220809-104.75962369 243.35753216 226.06755884a40.42052717 40.42052717 0 0 0 55.62457868-0.8807228z m0 0"  horiz-adv-x="1152" />
      
      <glyph glyph-name="crown" unicode="&#59420;" d="M1170.34849023 529.3426026a108.51174407 108.51174407 0 0 1-216.53025243 0 98.64704006 98.64704006 0 0 1 49.81675501-83.84998405 82.91283694 82.91283694 0 0 0-30.087347-41.77702096 147.97055938 147.97055938 0 0 0-104.56586205-20.41993728c-60.66792972 7.15191051-119.36291804 101.45848071-141.55850243 178.89640637a99.88012789 99.88012789 0 0 1 64.61381103 91.19918811 108.51174407 108.51174407 0 0 1-216.53025244 0 99.38689291 99.38689291 0 0 1 56.7220484-87.45060036c-18.24970234-70.77925085-67.57322238-163.60611536-147.97056009-182.4970234a119.16562376 119.16562376 0 0 0-92.72821738 12.2322325 93.71468806 93.71468806 0 0 0-37.97911036 51.54307854 97.85786365 97.85786365 0 0 1 46.8573444 81.8277191 108.51174407 108.51174407 0 0 1-216.53025245 0 102.05036283 102.05036283 0 0 1 83.84998406-96.92071653l126.76144569-392.31927675a40.39596243 40.39596243 0 0 1 38.96558105-26.78267138h495.70137453a40.39596243 40.39596243 0 0 1 38.96558105 26.78267138l127.25468067 394.58815883A101.01456857 101.01456857 0 0 1 1170.34849023 529.04666118z m-878.45188942 24.66176002a25.64822998 25.64822998 0 0 0 26.63470068-24.66176002 24.66176002 24.66176002 0 0 0-17.75646665-23.13273077h-2.46617635a42.07296238 42.07296238 0 0 1-9.86470401-1.1344414 25.59890714 25.59890714 0 0 0-23.18205434 24.26717217 25.94417139 25.94417139 0 0 0 26.63470067 24.66176002z m392.12198318 124.44324076a25.59890714 25.59890714 0 0 0 26.63470068-24.66176 25.20431857 25.20431857 0 0 0-21.70234866-24.02055434 39.45881603 39.45881603 0 0 1-9.86470402 1.13444069h-3.9458813a24.66176002 24.66176002 0 0 0-17.75646737 23.13273077 25.59890714 25.59890714 0 0 0 26.63470067 24.3658193z m214.5573118-589.95862187H464.03568523L391.03687586 313.30558513000005a217.81266383 217.81266383 0 0 1 112.95086037-2.12091136 256.48230346 256.48230346 0 0 1 155.86232274 118.37644808c6.90529266 11.14711539 13.81058532 22.78746651 19.72940802 34.52646403 7.39852765-14.25449746 15.290291-28.16372992 23.67529004-41.03716885a225.11254507 225.11254507 0 0 1 155.36908702-114.3319189 266.84024244 266.84024244 0 0 1 114.43056677 9.86470401z m163.75408535 465.51538111a25.94417139 25.94417139 0 0 0 26.6347014-24.66176002 25.25364215 25.25364215 0 0 0-19.23617304-23.47799576 45.67357942 45.67357942 0 0 1-5.42558698 0.34526499h-10.85117469a24.66176002 24.66176002 0 0 0-17.75646735 23.13273077 25.64822998 25.64822998 0 0 0 26.63470066 24.66176002z m0 0"  horiz-adv-x="1365" />
      
      <glyph glyph-name="anquan" unicode="&#58910;" d="M824.525 693.20625C693.0125 708.084375 594.06875 743.6625 530.45 798.984375l-16.734375 14.540625-18.05625-12.88125C395.95625 729.459375 297.35 693.375 202.625 693.375h-28.125v-393.75c0-120.7125 106.425-230.203125 325.378125-334.74375l11.503125-5.484375 11.728125 5.034375C739.7 57.46875 849.5 170.22187499999995 849.5 299.625V690.365625l-24.975 2.840625zM793.25 299.625c0-102.65625-94.3875-196.3125-280.659375-278.4375C325.559375 112.39687500000002 230.75 206.05312500000002 230.75 299.625V638.025c91.996875 5.9625 185.9625 41.034375 279.928125 104.540625C578.121875 691.153125 672.9875 656.86875 793.25 640.415625V299.625zM378.209375 422.08125a28.125 28.125 0 1 1-42.159375-37.265625L443.09375 263.68125c11.08125-12.515625 26.521875-18.95625 42.103125-18.95625a56.5875 56.5875 0 0 1 43.678125 20.671875l173.671875 213.328125a28.125 28.125 0 0 1-43.621875 35.521875l-173.671875-213.3-107.04375 121.134375z"  horiz-adv-x="1024" />
      
      <glyph glyph-name="xingzhuang15" unicode="&#59387;" d="M903.17863057 200.76506601999995l-377.41198096-262.75289854A23.93980839 23.93980839 0 0 0 511.99676036-65.99279999999999a24.38980489 24.38980489 0 0 0-13.81489015 4.00496748L120.76989013 200.76506601999995A35.50471612 35.50471612 0 0 0 107 226.09986299000002V697.96608809a23.66981104 23.66981104 0 0 0 16.51486816 20.69983476L495.57189131 831.97501583a68.53445156 68.53445156 0 0 0 33.07473544-1e-8l372.01202403-113.30909297a23.30981367 23.30981367 0 0 0 16.33486904-20.69983478v-471.86622508a35.00971963 35.00971963 0 0 0-13.81488925-25.33479697z m-64.79948145 462.37130068L511.99676036 762.4955721700001 185.74936982 663.1363667v-418.49665225L511.99676036 17.52653203l326.29238965 227.11318242v418.49665225z m-404.99676035-423.85160919v35.9997126a8.36993319 8.36993319 0 0 0 8.77492969 7.82993672H475.99704777V488.53776327a8.36993319 8.36993319 0 0 0 8.77492967 7.8299376h38.33969326a8.32493321 8.32493321 0 0 0 8.72993057-7.8299376v-205.42335644h41.62466689V551.35726143H455.20721474a8.41493232 8.41493232 0 0 0-8.9999288 7.82993672v35.23471875a8.41493232 8.41493232 0 0 0 8.9999288 7.82993672h244.1680462a8.36993319 8.36993319 0 0 0 8.72993057-7.82993672v-35.23471875a8.36993319 8.36993319 0 0 0-8.72993057-7.82993672H630.34581289v-98.99920811h63.494492a8.36993319 8.36993319 0 0 0 8.77493056-7.82993759v-34.24472579a8.36993319 8.36993319 0 0 0-8.77493056-7.8299376H630.34581289v-119.33904551h78.83936982a8.32493321 8.32493321 0 0 0 8.7299297-7.82993672v-35.9997126a8.36993319 8.36993319 0 0 0-8.7299297-7.82993671H442.02232021a8.41493232 8.41493232 0 0 0-8.77493057 7.82993671z m-81.31434961 5.98495255a9.44992441 9.44992441 0 0 0-12.28490156 1.75498593 7.24494199 7.24494199 0 0 0-1.61998682 4.49996397V439.7131544h-40.49967568a8.36993319 8.36993319 0 0 0-8.72993057 7.8299376v35.23471787a8.36993319 8.36993319 0 0 0 8.72993057 7.82993759H385.99776846a8.41493232 8.41493232 0 0 0 8.77492969-7.82993759v-152.5937792l25.5147952 15.25487782a9.40492441 9.40492441 0 0 0 12.14990333-2.15998242 7.55993935 7.55993935 0 0 0 1.21499033-2.6549789l7.96493585-31.769746a7.42494023 7.42494023 0 0 0-3.37497276-8.09993495z m40.49967657 275.84779307a9.40492441 9.40492441 0 0 0-12.32990158-0.4949965L320.88328877 573.13708652a7.19994199 7.19994199 0 0 0 0 11.06991213l26.9997838 24.16480663a9.53992354 9.53992354 0 0 0 12.23990243 0l58.76952979-50.93959307a7.33494112 7.33494112 0 0 0 0.35999735-10.97991211z"  horiz-adv-x="1024" />
      
      <glyph glyph-name="xingzhuang21" unicode="&#59386;" d="M765.1745583 212.41278895000005l-90.33748527 85.59204646a28.64677808 28.64677808 0 0 0 0.5659697 41.44640261 32.60856664 32.60856664 0 0 0 43.53613751 0.52243373l90.29394861-85.59204578 48.45572087 45.88708824-321.81912672 305.01417834a163.08637054 163.08637054 0 0 1-220.11871019-1.56730117 143.27742775 143.27742775 0 0 1-1.69790976-208.71224226l321.77559142-305.05771431 50.85020827 48.23804033-90.29394928 85.59204578a28.60324211 28.60324211 0 0 0 0.56597037 41.4464026 32.52149469 32.52149469 0 0 0 43.53613682 0.52243372l90.2939493-85.59204576z m-108.84034341-185.89930572a32.52149469 32.52149469 0 0 0-43.05723975 1.13193941L270.03806848 353.0345128A200.96280971 200.96280971 0 0 0 210.56770479 555.21633453a214.0671874 214.0671874 0 0 0 156.73009459 148.41469166 227.60692552 227.60692552 0 0 0 213.32707246-56.59697787L636.30759153 594.31178573l59.42682772 56.33576201a227.69399815 227.69399815 0 0 0 213.32707246 56.33576135 214.0671874 214.0671874 0 0 0 156.7300946-148.41469235 200.96280971 200.96280971 0 0 0-59.47036369-202.18182106l-343.67426776-325.04080168a33.39221757 33.39221757 0 0 0-6.3998126-4.83251077z m24.03194787 526.00361073l222.03429984-210.23600678 59.51389965 56.29222538a143.32096372 143.32096372 0 0 1 0 210.32307939 163.08637054 163.08637054 0 0 1-222.03429983 0l-59.38329173-56.33576201z m0 0"  horiz-adv-x="1280" />
      
      <glyph glyph-name="tongzhigonggao" unicode="&#59385;" d="M118.25 435.328125a70.3125 70.3125 0 0 1 46.40625-66.9375V495.796875c0 1.828125 0.984375 4.640625 0.984375 6.46875A71.71875 71.71875 0 0 1 118.25 435.328125z m250.734375-157.640625H249.03125l44.859375-163.125a56.25 56.25 0 0 1 54.984375-42.1875 57.796875 57.796875 0 0 1 46.6875 22.921875A53.296875 53.296875 0 0 1 404.84375 144.9375zM165.640625 503.109375h0.84375v0.984375c0-0.984375 0-0.984375-0.84375-0.984375z m657 12.796875h-7.3125V350.953125h7.3125a82.546875 82.546875 0 1 1 0 164.953125zM192.21875 495.796875v-130.078125a62.15625 62.15625 0 0 1 62.296875-60.46875H421.296875V552.75H254.515625a59.484375 59.484375 0 0 1-62.296875-56.953125zM448.71875 301.453125l339.1875-135.5625V695.625L448.71875 559.921875v-258.46875z"  horiz-adv-x="1024" />
      
      <glyph glyph-name="weifajubao" unicode="&#59382;" d="M255.9 169.5h496.8c11.5 0 21.2 8.7 22.3 20.2 0.9 8.6 1.3 17.3 1.3 25.8V340.1c0 145.2-118.2 263.4-263.4 263.4h-17.1c-145.2 0-263.4-118.2-263.4-263.4v-124.6c0-8.5 0.4-17.1 1.3-25.8 1-11.5 10.7-20.2 22.2-20.2z m21.2 170.6c0 120.5 98.1 218.6 218.6 218.6h17.1c120.5 0 218.6-98.1 218.6-218.6v-125.8H277.1V340.1z m478.1-220.6H261.5c-12.4 0-22.4-10-22.4-22.4s10-22.4 22.4-22.4h493.8c12.4 0 22.4 10 22.4 22.4s-10.1 22.4-22.5 22.4zM315.4 594.9c4.4-4.8 10.4-7.2 16.5-7.2 5.4 0 10.9 2 15.2 5.9 9.1 8.4 9.7 22.5 1.3 31.6L295.3 683c-8.4 9.1-22.5 9.7-31.7 1.3-9.1-8.4-9.7-22.5-1.3-31.6l53.1-57.8z m367.4-7.3c6 0 12.1 2.4 16.5 7.2l53.1 57.8c8.4 9.1 7.8 23.3-1.3 31.6s-23.3 7.8-31.7-1.3l-53.1-57.8c-8.4-9.1-7.8-23.3 1.3-31.6 4.3-3.9 9.8-5.9 15.2-5.9z m-177.4 45.6h0.8c12.4 0.4 22 10.8 21.6 23.2l-2.7 78.4c-0.4 12.4-10.5 22.1-23.2 21.6-12.4-0.4-22-10.8-21.6-23.2l2.7-78.4c0.4-12.1 10.4-21.6 22.4-21.6zM363.1 387.2c2.6-1 5.3-1.5 7.9-1.5 9 0 17.5 5.5 21 14.4 0.7 1.9 18.6 46.5 69.8 56.2 12.2 2.3 20.1 14 17.8 26.2-2.3 12.2-14.1 20.2-26.2 17.8-76.6-14.5-102.4-81.6-103.4-84.5-4.3-11.4 1.6-24.2 13.1-28.6z m462-330.4H197.9c-12.3 0-22.4-10.1-22.4-22.4s10.1-22.4 22.4-22.4h627.2c12.3 0 22.4 10.1 22.4 22.4s-10 22.4-22.4 22.4z m107.6 0h-44.8c-12.3 0-22.4-10.1-22.4-22.4s10.1-22.4 22.4-22.4h44.8c12.3 0 22.4 10.1 22.4 22.4s-10.1 22.4-22.4 22.4z m-797.5 0H90.4C78 56.799999999999955 68 46.700000000000045 68 34.39999999999998S78 12 90.4 12h44.8c12.3 0 22.4 10.1 22.4 22.4s-10.1 22.4-22.4 22.4z"  horiz-adv-x="1024" />
      
      <glyph glyph-name="falvfagui20X20" unicode="&#59383;" d="M867.89358521 643.453125H808.70501709v20.62985229l-20.12393188 9.703125c-4.04983521 1.98248291-99.7734375 47.71389771-183.55764771 47.71389771-39.19235229 0-70.58001709-9.95608521-93.74029541-29.61529541-23.16192627 19.65921021-54.50592041 29.61529541-93.74111938 29.61529541-83.7421875 0-179.5078125-45.73059083-183.515625-47.671875l-20.12310792-9.703125v-20.671875H156.10641479c-13.16299438 0-23.79391479-13.078125-23.79391479-29.23626709v-538.48059082c0-16.15814209 10.63092041-29.23626709 23.79391479-29.23626709h711.82919312c13.12097168 0 23.75189209 13.078125 23.75189209 29.23626709V614.21685791c0 16.15814209-10.63092041 29.23626709-23.79391479 29.23626709z m-90.9140625-5.90625v-427.359375c-49.10641479 20.671875-179.5078125 67.5-249.83404542 17.00189209V657.62796021c19.828125 18.22549438 47.75592041 24.890625 77.87796021 24.890625 78.72253418 0 171.95608521-44.97171021 171.95608521-44.97171021z m-35.90139771-453.97952271H532.08108521c40.79498291 47.54498291 141.75 24.6796875 208.99703979 0zM417.54202271 682.51776123c30.12203979 0 58.04983521-6.70715333 77.8779602-24.890625V227.18939208999996c-70.32623291 50.49810791-200.72845459 3.66998291-249.83404541-17.00189209V637.546875s93.234375 44.97253418 171.95608521 44.97253418z m72.94235229-498.9512329H281.4453125c67.20501709 24.6796875 168.24407959 47.58700562 209.0390625-1e-8z m353.65814209-78.5956421H179.85748291V584.9814147899999h34.04580688v-440.4375h594.75888062V584.9814147899999h35.4375v-480.00970458z"  horiz-adv-x="1024" />
      
      <glyph glyph-name="puguangtai" unicode="&#59384;" d="M861.52533333 578.18112a38.83576889 38.83576889 0 0 0 38.83576889-38.83690667v-427.19687111a38.83576889 38.83576889 0 0 0-38.83576889-38.83690667H162.47466667a38.83576889 38.83576889 0 0 0-38.83576889 38.83690667V539.34421333a38.83576889 38.83576889 0 0 0 38.83576889 38.83690667h38.83576888V617.01688889a38.83576889 38.83576889 0 0 0 38.83690667 38.83576889H337.23733333a38.83576889 38.83576889 0 0 0 38.83576889-38.83576889v-38.83576889h174.76266667l15.30197333 66.91384889A38.83576889 38.83576889 0 0 0 604.00298667 675.27111111h204.37560888a38.83576889 38.83576889 0 0 0 37.86524445-30.17614222l15.28149333-66.91384889z m0-407.77955555H609.08999111a19.41845333 19.41845333 0 0 0 0 38.83576888H861.52533333v58.25422222H667.34421333a19.41845333 19.41845333 0 0 0 0 38.8357689H861.52533333V519.92689778a19.41845333 19.41845333 0 0 1-19.41845333 19.41731555H181.89312a19.41845333 19.41845333 0 0 1-19.41845333-19.41731555v-388.36224a19.41845333 19.41845333 0 0 1 19.41845333-19.41731556h660.21376a19.41845333 19.41845333 0 0 1 19.41845333 19.41731556v38.83690667zM259.56465778 617.01688889a19.41845333 19.41845333 0 0 1-19.41731556-19.41845334v-19.41731555H337.23733333v19.41731555a19.41845333 19.41845333 0 0 1-19.41845333 19.41845334h-58.25422222z m363.50634667 19.41845333a19.41845333 19.41845333 0 0 1-18.40810667-13.28241777l-14.99022223-44.97180445h233.0168889l-14.99136 44.97180445a19.41845333 19.41845333 0 0 1-18.4274489 13.28241777H623.09034667z m-208.16099556-466.03377777a155.34421333 155.34421333 0 1 0 0 310.68842666 155.34421333 155.34421333 0 0 0 0-310.68842666z m0 77.67153777a77.67267555 77.67267555 0 1 1 0 155.34535111 77.67267555 77.67267555 0 0 1 0-155.34535111z m291.27111111 252.43534223H803.27111111a19.41845333 19.41845333 0 0 0 19.41845334-19.41845334v-19.41731556A19.41845333 19.41845333 0 0 0 803.27111111 442.25422222h-97.08999111a19.41845333 19.41845333 0 0 0-19.41845333 19.41845333v19.41731556a19.41845333 19.41845333 0 0 0 19.41845333 19.41845334z"  horiz-adv-x="1024" />
      
      </font>
</defs>
</svg>
