<svg xmlns="http://www.w3.org/2000/svg" width="14" height="14" viewBox="0 0 14 14">
  <metadata><?xpacket begin="﻿" id="W5M0MpCehiHzreSzNTczkc9d"?>
<x:xmpmeta xmlns:x="adobe:ns:meta/" x:xmptk="Adobe XMP Core 5.6-c138 79.159824, 2016/09/14-01:09:01        ">
   <rdf:RDF xmlns:rdf="http://www.w3.org/1999/02/22-rdf-syntax-ns#">
      <rdf:Description rdf:about=""/>
   </rdf:RDF>
</x:xmpmeta>
                                                                                                    
                                                                                                    
                                                                                                    
                                                                                                    
                                                                                                    
                                                                                                    
                                                                                                    
                                                                                                    
                                                                                                    
                                                                                                    
                                                                                                    
                                                                                                    
                                                                                                    
                                                                                                    
                                                                                                    
                                                                                                    
                                                                                                    
                                                                                                    
                                                                                                    
                                                                                                    
                           
<?xpacket end="w"?></metadata>
<defs>
    <style>
      .cls-1 {
        fill: #fff;
        fill-rule: evenodd;
      }
    </style>
  </defs>
  <path id="关闭icon" class="cls-1" d="M1360.25,509l5.45-5.465a0.9,0.9,0,1,0-1.27-1.275l-5.45,5.465-5.45-5.465a0.894,0.894,0,0,0-1.27,0,0.905,0.905,0,0,0,0,1.275l5.45,5.463-5.45,5.465a0.9,0.9,0,0,0,0,1.274,0.869,0.869,0,0,0,.63.264,0.908,0.908,0,0,0,.64-0.264l5.45-5.462,5.45,5.462a0.908,0.908,0,0,0,.64.264,0.869,0.869,0,0,0,.63-0.264,0.9,0.9,0,0,0,0-1.274Zm0,0" transform="translate(-1352 -502)"/>
</svg>
