<svg xmlns="http://www.w3.org/2000/svg" width="14" height="14" viewBox="0 0 14 14">
  <defs>
    <style>
      .cls-1 {
        fill: #999;
        fill-rule: evenodd;
      }
    </style>
  </defs>
  <path id="icon_rq" class="cls-1" d="M838,1974v7.5a2.476,2.476,0,0,1-2.5,2.5h-7a2.476,2.476,0,0,1-2.5-2.5V1980h2v-7.5a2.476,2.476,0,0,1,2.5-2.5h8a1.538,1.538,0,0,1,1.5,1.5v2.5h-2Zm-10,7h-1v0.5a0.6,0.6,0,0,0,.1.4v0.1a1.466,1.466,0,0,0,.2.4,1.425,1.425,0,0,0,1.2.6h5a2.456,2.456,0,0,1-.5-1.5V1981h-5Zm9-1v-9h-6.5a1.538,1.538,0,0,0-1.5,1.5v7.5h5v1.5a1.5,1.5,0,0,0,3,0V1980Zm2-8.5a0.5,0.5,0,0,0-1,0v1.5h1v-1.5Zm-9,2.5h6v1h-6v-1Zm4,4h-4v-1h4v1Z" transform="translate(-826 -1970)"/>
</svg>
